<svg width="70" height="70" viewBox="0 0 70 70" fill="none" xmlns="http://www.w3.org/2000/svg">
<g id="artificial-intelligence 1" clip-path="url(#clip0_1163_277)">
<g id="Group">
<g id="Group_2">
<g id="Group_3">
<g id="Group_4">
<path id="Vector" d="M44.7397 68.8399C44.1633 68.8399 43.6961 68.3728 43.6961 67.7964V64.0531L39.8277 60.1859C39.6319 59.9903 39.522 59.7248 39.522 59.4479V52.3268C39.522 51.7504 39.9891 51.2832 40.5655 51.2832C41.142 51.2832 41.6091 51.7504 41.6091 52.3268V59.0155L45.4776 62.8827C45.6734 63.0783 45.7833 63.3438 45.7833 63.6207V67.7962C45.7833 68.3728 45.3161 68.8399 44.7397 68.8399Z" fill="#A4E7FF"/>
</g>
</g>
<path id="Vector_2" d="M50.3051 68.84C49.7287 68.84 49.2616 68.3729 49.2616 67.7965V61.2706L45.3931 57.4034C45.1973 57.2077 45.0874 56.9422 45.0874 56.6654V52.327C45.0874 51.7506 45.5546 51.2834 46.131 51.2834C46.7074 51.2834 47.1746 51.7506 47.1746 52.327V56.2329L51.043 60.1002C51.2388 60.2958 51.3487 60.5613 51.3487 60.8382V67.7965C51.3487 68.3729 50.8815 68.84 50.3051 68.84Z" fill="#A4E7FF"/>
</g>
<g id="Group_5">
<g id="Group_6">
<g id="Group_7">
<path id="Vector_3" d="M40.5655 18.6512C39.9891 18.6512 39.522 18.184 39.522 17.6076V10.4866C39.522 10.2099 39.6319 9.9444 39.8277 9.74861L43.6961 5.88139V2.1383C43.6961 1.56189 44.1633 1.09473 44.7397 1.09473C45.3161 1.09473 45.7833 1.56189 45.7833 2.1383V6.31383C45.7833 6.59055 45.6734 6.85606 45.4776 7.05184L41.6091 10.9191V17.6078C41.6091 18.184 41.142 18.6512 40.5655 18.6512Z" fill="#A4E7FF"/>
</g>
</g>
<path id="Vector_4" d="M46.131 18.6512C45.5546 18.6512 45.0874 18.184 45.0874 17.6076V13.2694C45.0874 12.9927 45.1973 12.7272 45.3931 12.5314L49.2616 8.66416V2.1383C49.2616 1.56189 49.7287 1.09473 50.3051 1.09473C50.8815 1.09473 51.3487 1.56189 51.3487 2.1383V9.0966C51.3487 9.37332 51.2388 9.63883 51.043 9.83461L47.1746 13.7018V17.6078C47.1746 18.184 46.7074 18.6512 46.131 18.6512Z" fill="#A4E7FF"/>
</g>
<g id="Group_8">
<path id="Vector_5" d="M64.4806 36.0434H52.3922C51.8158 36.0434 51.3486 35.5763 51.3486 34.9999C51.3486 34.4235 51.8158 33.9563 52.3922 33.9563H64.4806C65.057 33.9563 65.5242 34.4235 65.5242 34.9999C65.5242 35.5763 65.057 36.0434 64.4806 36.0434Z" fill="#A4E7FF"/>
<path id="Vector_6" d="M66.793 37.7828C68.3299 37.7828 69.5758 36.5369 69.5758 35.0001C69.5758 33.4632 68.3299 32.2173 66.793 32.2173C65.2561 32.2173 64.0103 33.4632 64.0103 35.0001C64.0103 36.5369 65.2561 37.7828 66.793 37.7828Z" fill="#8CE09F"/>
<g id="Group_9">
<g id="Group_10">
<path id="Vector_7" d="M59.5133 30.4779H52.3922C51.8158 30.4779 51.3486 30.0107 51.3486 29.4343C51.3486 28.8579 51.8158 28.3907 52.3922 28.3907H59.0809L62.9481 24.5223C63.1438 24.3265 63.4093 24.2166 63.6861 24.2166H67.8617C68.4381 24.2166 68.9052 24.6837 68.9052 25.2601C68.9052 25.8365 68.4381 26.3037 67.8617 26.3037H64.1184L60.2512 30.1722C60.0556 30.3679 59.7902 30.4779 59.5133 30.4779Z" fill="#A4E7FF"/>
</g>
</g>
<g id="Group_11">
<g id="Group_12">
<path id="Vector_8" d="M67.8617 45.7833H63.6861C63.4094 45.7833 63.1439 45.6734 62.9481 45.4776L59.0809 41.6091H52.3922C51.8158 41.6091 51.3486 41.142 51.3486 40.5655C51.3486 39.9891 51.8158 39.522 52.3922 39.522H59.5133C59.7901 39.522 60.0556 39.6319 60.2513 39.8277L64.1186 43.6961H67.8618C68.4382 43.6961 68.9054 44.1633 68.9054 44.7397C68.9052 45.3161 68.4381 45.7833 67.8617 45.7833Z" fill="#A4E7FF"/>
</g>
</g>
<g id="Group_13">
<path id="Vector_9" d="M56.7306 24.9124H52.3922C51.8158 24.9124 51.3486 24.4453 51.3486 23.8689C51.3486 23.2925 51.8158 22.8253 52.3922 22.8253H56.2981L60.1653 18.9568C60.361 18.761 60.6265 18.6511 60.9034 18.6511H67.8617C68.4381 18.6511 68.9052 19.1183 68.9052 19.6947C68.9052 20.2711 68.4381 20.7383 67.8617 20.7383H61.3357L57.4684 24.6067C57.2729 24.8025 57.0074 24.9124 56.7306 24.9124Z" fill="#A4E7FF"/>
<path id="Vector_10" d="M67.8617 51.3487H60.9034C60.6266 51.3487 60.3611 51.2388 60.1653 51.043L56.2981 47.1746H52.3922C51.8158 47.1746 51.3486 46.7074 51.3486 46.131C51.3486 45.5546 51.8158 45.0874 52.3922 45.0874H56.7306C57.0073 45.0874 57.2728 45.1973 57.4686 45.3931L61.3358 49.2616H67.8618C68.4382 49.2616 68.9054 49.7287 68.9054 50.3051C68.9052 50.8815 68.4381 51.3487 67.8617 51.3487Z" fill="#A4E7FF"/>
</g>
</g>
<g id="Group_14">
<path id="Vector_11" d="M53.0878 21.0863V48.914C53.0878 49.5888 52.9278 50.2261 52.6425 50.7896C38.8192 44.8454 34.3998 33.2823 36.9865 16.9121H48.9135C51.2191 16.9121 53.0878 18.7808 53.0878 21.0863Z" fill="#7888AF"/>
<path id="Vector_12" d="M52.6424 50.7896C51.9565 52.1531 50.5442 53.0882 48.9135 53.0882H21.0858C18.7803 53.0882 16.9116 51.2195 16.9116 48.914V21.0863C16.9116 18.7808 18.7803 16.9121 21.0858 16.9121H36.9866C36.5983 31.5537 40.5374 43.4945 52.6424 50.7896Z" fill="#687DAA"/>
</g>
<g id="Group_15">
<path id="Vector_13" d="M46.1307 25.2604V39.4135C46.1307 40.151 45.8372 40.8592 45.3154 41.3809L43.7737 42.9226C37.5787 38.3145 35.1954 31.9823 37.1619 23.8689H44.7394C45.5074 23.869 46.1307 24.4923 46.1307 25.2604Z" fill="#FFFCDC"/>
<path id="Vector_14" d="M43.7738 42.9226L41.3805 45.3158C40.8588 45.8375 40.1506 46.1312 39.4132 46.1312H23.8687V23.8689H37.162C37.7616 31.1765 39.7722 37.6255 43.7738 42.9226Z" fill="#FCF5AF"/>
</g>
<g id="Group_16">
<g id="Group_17">
<path id="Vector_15" d="M36.0433 10.3962V49.1728C18.131 43.1534 10.9289 29.5146 14.4948 8.95618C15.5203 8.362 16.6208 7.90153 17.7673 7.58981C18.9487 3.83032 22.4395 1.09062 26.5859 1.04468H26.6931C31.8511 1.04468 36.0433 5.22581 36.0433 10.3962Z" fill="#FF97C1"/>
<path id="Vector_16" d="M36.0433 49.1728V59.6041C36.0433 64.7689 31.8566 68.9556 26.6904 68.9556C24.5978 68.9556 22.6638 68.2683 21.1054 67.1051C19.5471 65.9433 18.363 64.307 17.7674 62.4106C13.6476 61.2891 10.119 58.2518 8.54809 53.9357C7.76332 51.7818 7.55742 49.5584 7.85096 47.4365C3.98441 44.6592 1.46729 40.1233 1.46729 35.0002C1.46729 29.8757 3.98428 25.3411 7.85096 22.5639C7.55742 20.4407 7.76332 18.2186 8.54809 16.0647C9.68203 12.9495 11.8359 10.4992 14.4948 8.95605C13.1202 27.7051 20.4306 41.2545 36.0433 49.1728Z" fill="#FF83B4"/>
<path id="Vector_17" d="M34.0007 3.00391C32.0106 1.03598 29.3706 -0.0291958 26.5744 0.000608934C23.8197 0.0316441 21.2358 1.12744 19.2988 3.08621C18.253 4.14387 17.4609 5.38719 16.9533 6.74098C12.6141 8.10243 9.12939 11.4184 7.56738 15.7077C6.82473 17.7496 6.54377 19.9423 6.74557 22.0875C2.85332 25.1193 0.423828 29.8452 0.423828 34.9998C0.423828 40.1541 2.85387 44.8802 6.7468 47.9123C6.54459 50.0587 6.82514 52.2512 7.56738 54.2922C9.12912 58.5831 12.6164 61.9006 16.9591 63.2609C18.4421 67.1945 22.2448 70.0001 26.6905 70.0001C29.4671 70.0001 32.0778 68.9186 34.0415 66.9552C36.0054 64.9927 37.087 62.382 37.087 59.6037V10.3962C37.087 7.59725 35.9909 4.97184 34.0007 3.00391ZM34.9999 59.6037C34.9999 61.8241 34.1355 63.9107 32.5659 65.479C30.9962 67.0486 28.9096 67.913 26.6905 67.913C22.1095 67.913 18.3825 64.1856 18.3825 59.6037C18.3825 59.0273 17.9154 58.5601 17.3389 58.5601C16.7625 58.5601 16.2954 59.0273 16.2954 59.6037C16.2954 60.0141 16.3193 60.4192 16.3658 60.8173C13.2121 59.4575 10.7185 56.8474 9.52875 53.5785C9.02426 52.1915 8.76846 50.7233 8.76996 49.2585C9.91881 49.9046 11.1587 50.4178 12.4722 50.7749C12.5638 50.7998 12.6559 50.8117 12.7466 50.8117C13.2058 50.8117 13.6268 50.5062 13.7529 50.0417C13.9042 49.4856 13.5759 48.9122 13.0197 48.7609C6.83238 47.0789 2.51098 41.4201 2.51098 34.9998C2.51098 28.5784 6.83225 22.9196 13.0196 21.2386C13.5758 21.0876 13.9042 20.5143 13.7531 19.9581C13.602 19.402 13.0289 19.0741 12.4724 19.2246C11.1586 19.5815 9.91826 20.0948 8.76914 20.7411C8.76791 19.277 9.02412 17.8089 9.52875 16.4215C10.719 13.1528 13.2121 10.543 16.3647 9.18319C16.3185 9.58295 16.295 9.98791 16.295 10.3962C16.295 10.9726 16.7621 11.4397 17.3385 11.4397C17.9148 11.4397 18.3821 10.9726 18.3821 10.3962C18.3821 5.86571 22.0678 2.13862 26.5978 2.08776C28.836 2.06 30.9426 2.91532 32.5332 4.48799C34.1239 6.06094 34.9999 8.15916 34.9999 10.3962V59.6037Z" fill="#FF71A8"/>
</g>
</g>
<g id="Group_18">
<g id="Group_19">
<path id="Vector_18" d="M39.1742 30.4781H32.1184C31.8415 30.4781 31.5762 30.3682 31.3804 30.1724L27.5133 26.3039H22.5084C21.9321 26.3039 21.4648 25.8368 21.4648 25.2604C21.4648 24.684 21.932 24.2168 22.5084 24.2168H27.9457C28.2226 24.2168 28.4879 24.3267 28.6837 24.5225L32.5508 28.391H39.1742C39.7506 28.391 40.2177 28.8581 40.2177 29.4345C40.2177 30.0109 39.7506 30.4781 39.1742 30.4781Z" fill="#8CE09F"/>
</g>
<path id="Vector_19" d="M23.7716 25.2603C23.7716 26.7972 22.5257 28.0431 20.9888 28.0431C19.452 28.0431 18.2061 26.7972 18.2061 25.2603C18.2061 23.7235 19.452 22.4775 20.9888 22.4775C22.5257 22.4775 23.7716 23.7235 23.7716 25.2603Z" fill="#F9EE80"/>
</g>
<g id="Group_20">
<g id="Group_21">
<path id="Vector_20" d="M27.9457 45.7833H22.5084C21.9321 45.7833 21.4648 45.3161 21.4648 44.7397C21.4648 44.1633 21.932 43.6961 22.5084 43.6961H27.5133L31.3804 39.8277C31.5762 39.6319 31.8415 39.522 32.1184 39.522H39.1742C39.7506 39.522 40.2177 39.9891 40.2177 40.5655C40.2177 41.142 39.7506 41.6091 39.1742 41.6091H32.5508L28.6837 45.4776C28.4881 45.6734 28.2226 45.7833 27.9457 45.7833Z" fill="#8CE09F"/>
</g>
<path id="Vector_21" d="M20.9888 47.5226C22.5257 47.5226 23.7716 46.2767 23.7716 44.7398C23.7716 43.2029 22.5257 41.957 20.9888 41.957C19.4519 41.957 18.2061 43.2029 18.2061 44.7398C18.2061 46.2767 19.4519 47.5226 20.9888 47.5226Z" fill="#F9EE80"/>
</g>
<g id="Group_22">
<path id="Vector_22" d="M39.1738 36.0437H26.3165C25.7403 36.0437 25.2729 35.5765 25.2729 35.0001C25.2729 34.4237 25.7401 33.9565 26.3165 33.9565H39.1738C39.7502 33.9565 40.2174 34.4237 40.2174 35.0001C40.2174 35.5765 39.7502 36.0437 39.1738 36.0437Z" fill="#8CE09F"/>
<path id="Vector_23" d="M24.773 37.7828C26.3099 37.7828 27.5558 36.5369 27.5558 35.0001C27.5558 33.4632 26.3099 32.2173 24.773 32.2173C23.2361 32.2173 21.9902 33.4632 21.9902 35.0001C21.9902 36.5369 23.2361 37.7828 24.773 37.7828Z" fill="#F9EE80"/>
</g>
</g>
</g>
<defs>
<clipPath id="clip0_1163_277">
<rect width="70" height="70" fill="white"/>
</clipPath>
</defs>
</svg>
