<svg width="70" height="70" viewBox="0 0 70 70" fill="none" xmlns="http://www.w3.org/2000/svg">
<g id="atom" clip-path="url(#clip0_1163_85)">
<g id="Group">
<path id="Vector" d="M55.0186 14.9749L43.8086 11.3792C39.0338 10.5199 33.9141 10.3594 28.8845 10.9736L23.1798 14.6189L28.1479 15.3551C35.9767 14.1812 44.5752 15.0143 51.8452 18.1468L57.4369 21.2313C68.2531 28.6481 68.7879 40.8208 57.4411 48.7584L51.8467 51.8458C44.6362 54.9521 36.0486 55.8001 28.2804 54.6613L22.7437 56.2187L29.0635 59.0388C35.5866 59.8121 42.4627 59.3113 48.7595 57.4402L55.0187 55.0178C74.9892 45.2766 74.9892 24.7158 55.0186 14.9749Z" fill="#D5D4FF"/>
<path id="Vector_2" d="M29.0633 59.0386C26.3717 58.7203 23.7407 58.1849 21.235 57.44L5.10112 47.7102C-3.97646 37.3709 -1.07502 22.8046 14.9759 14.9748L21.2352 12.5525C23.7225 11.8131 26.2916 11.2905 28.8846 10.9736C28.6141 12.3609 28.3676 13.8242 28.1479 15.3553C24.6296 15.8821 21.2367 16.8159 18.1479 18.147L12.5535 21.2344C2.96584 27.9412 1.85883 37.623 8.28707 44.9765L18.1478 51.8456C21.314 53.2089 24.7492 54.1442 28.2803 54.6612C28.5168 56.1949 28.7774 57.6584 29.0633 59.0386Z" fill="#BABBF1"/>
<path id="Vector_3" d="M11.5314 44.6074C7.67234 44.0451 4.24316 47.0372 4.24316 50.9036C4.24316 54.4177 7.09197 57.2665 10.6061 57.2665C12.3839 57.2665 13.9916 56.5374 15.1461 55.3617C16.6436 51.242 15.0005 47.0935 11.5314 44.6074Z" fill="#9BD981"/>
<path id="Vector_4" d="M30.3055 5.08455L27.3232 4.15076L32.1534 0.233908C35.8652 -0.379686 39.648 0.220646 43.1196 1.97037L45.0041 5.44522L41.383 5.82406C37.7188 3.95334 33.8525 3.78709 30.3055 5.08455Z" fill="#EFEDFE"/>
<path id="Vector_5" d="M52.3732 59.5739C46.6486 67.9053 39.1833 70.7338 32.6674 69.843L26.5054 66.6866L30.6097 65.0148C43.2834 69.336 55.1464 54.4765 55.1464 34.9962C55.1464 26.1947 52.7112 18.244 48.8154 12.6326L47.8844 7.35376L52.4858 10.5833C61.7311 24.2158 61.7002 45.9977 52.3732 59.5739Z" fill="#EFEDFE"/>
<path id="Vector_6" d="M32.6676 69.8429C27.1648 69.0908 21.8069 65.6682 17.621 59.5738C8.26044 45.9496 8.26044 24.0426 17.621 10.4185C21.8013 4.33518 26.9662 1.09166 32.1535 0.233887C31.4902 1.56471 30.8704 3.19576 30.3057 5.08453C21.4507 8.31971 14.8478 20.503 14.8478 34.996C14.8478 49.6539 21.6015 61.9497 30.61 65.0145C31.2379 66.9499 31.9281 68.5779 32.6676 69.8429Z" fill="#D5D4FF"/>
<path id="Vector_7" d="M49.8436 34.9963C49.8436 41.9287 45.0929 47.7512 38.6689 49.3851C30.037 50.1545 22.6399 43.313 22.5617 35.1371C22.4825 26.8605 29.9285 19.8321 38.6689 20.6074C45.0929 22.2412 49.8436 28.0638 49.8436 34.9963Z" fill="#FF8896"/>
<path id="Vector_8" d="M38.6688 49.385C29.2842 51.7735 20.1504 44.68 20.1504 34.9962C20.1504 25.3131 29.285 18.219 38.6688 20.6073C32.2434 22.2413 27.4926 28.0638 27.4926 34.9962C27.4926 41.9285 32.2434 47.7511 38.6688 49.385Z" fill="#FB5C6F"/>
<g id="Group_2">
<path id="Vector_9" d="M25.4528 34.5612C24.8694 34.5612 24.3965 34.0883 24.3965 33.505V31.8148C24.3965 31.2313 24.8694 30.7585 25.4528 30.7585C26.0362 30.7585 26.5091 31.2315 26.5091 31.8148V33.505C26.5091 34.0883 26.0362 34.5612 25.4528 34.5612Z" fill="#495560"/>
<path id="Vector_10" d="M38.3345 34.9075C38.3345 32.8451 36.8404 32.6514 34.9973 32.6514C33.1542 32.6514 31.6602 32.8451 31.6602 34.9075C31.6602 36.9699 33.1542 38.6417 34.9973 38.6417C36.8404 38.6417 38.3345 36.9699 38.3345 34.9075Z" fill="#495560"/>
<path id="Vector_11" d="M44.5416 34.5612C43.9583 34.5612 43.4854 34.0883 43.4854 33.505V31.8148C43.4854 31.2313 43.9583 30.7585 44.5416 30.7585C45.125 30.7585 45.5979 31.2315 45.5979 31.8148V33.505C45.5981 34.0883 45.1252 34.5612 44.5416 34.5612Z" fill="#495560"/>
</g>
<path id="Vector_12" d="M47.7232 12.7258C51.2374 12.7258 54.0861 9.87702 54.0861 6.36289C54.0861 2.84876 51.2374 0 47.7232 0C44.2091 0 41.3604 2.84876 41.3604 6.36289C41.3604 9.87702 44.2091 12.7258 47.7232 12.7258Z" fill="#FFCD6B"/>
</g>
</g>
<defs>
<clipPath id="clip0_1163_85">
<rect width="70" height="70" fill="white"/>
</clipPath>
</defs>
</svg>
