<svg width="70" height="70" viewBox="0 0 70 70" fill="none" xmlns="http://www.w3.org/2000/svg">
<g id="audiobook">
<g id="Group">
<path id="Vector" d="M25.2157 4.4873L27.4847 9.44787C20.0298 12.4296 14.7636 19.7197 14.7636 28.2408V38.0732H9.64111V28.0169C9.64111 17.445 16.0622 8.37313 25.2157 4.4873Z" fill="#687DAA"/>
<path id="Vector_2" d="M60.7425 28.017V38.0734H55.2355V28.241C55.2355 22.6537 52.9708 17.5945 49.3088 13.9325C47.5299 12.1537 45.4214 10.7043 43.082 9.68468L45.6947 4.71851C54.5679 8.72396 60.7425 17.6494 60.7425 28.017Z" fill="#7888AF"/>
<path id="Vector_3" d="M58.0725 44.4358H55.2359C54.7671 42.99 54.2592 40.8799 54.2307 38.2999C54.2 35.4967 54.7473 33.2182 55.2359 31.7107H58.0725C61.5865 31.7107 64.435 34.5592 64.435 38.0732C64.435 41.5871 61.5865 44.4358 58.0725 44.4358Z" fill="#83DEFF"/>
<path id="Vector_4" d="M11.9274 44.4358H14.7641C15.3301 43.2841 16.2729 40.9784 16.2439 37.9358C16.2164 35.0449 15.3245 32.8509 14.7641 31.7107C13.8185 31.7107 12.873 31.7107 11.9274 31.7107C8.41348 31.7107 5.56494 34.5592 5.56494 38.0732C5.56494 41.5871 8.41361 44.4358 11.9274 44.4358Z" fill="#2ECEFB"/>
<path id="Vector_5" d="M54.8496 12.0634C53.8229 16.1999 49.1355 18.2818 45.4877 16.0606C42.4215 14.2015 38.8256 13.131 34.9863 13.131C34.4821 13.131 33.9821 13.1493 33.4877 13.186C32.8745 12.4029 31.6391 10.5937 31.4319 8.02047C31.0683 3.50834 34.1719 0.44707 34.6342 0.00574219C34.8215 0.00136719 35.0102 0 35.1989 0C41.5172 0 47.3961 1.92254 52.2778 5.21555C54.5074 6.71836 55.4975 9.45356 54.8496 12.0634Z" fill="#83DEFF"/>
<path id="Vector_6" d="M33.4876 13.186C30.2891 13.4198 27.2918 14.3973 24.6735 15.948C21.0524 18.0889 16.3933 16.1634 15.3637 12.0859C14.7256 9.55925 15.7018 6.88448 17.8454 5.40423C22.6355 2.09714 28.4102 0.118271 34.634 0.00561523C33.7566 2.22388 33.0411 4.95771 32.9862 8.09431C32.9538 9.92962 33.1524 11.6338 33.4876 13.186Z" fill="#2ECEFB"/>
<path id="Vector_7" d="M52.2914 48.8013L50.0851 49.5877L48.0919 48.8013C46.4659 48.8013 45.1479 47.4832 45.1479 45.8573V30.2894C45.1479 28.6634 46.4661 27.3455 48.0919 27.3455H52.2914C53.9174 27.3455 55.2353 28.6636 55.2353 30.2894V45.8573C55.2355 47.4832 53.9174 48.8013 52.2914 48.8013Z" fill="#FFEAB7"/>
<path id="Vector_8" d="M21.9076 48.8013L19.8079 49.5877L17.7081 48.8013C16.0821 48.8013 14.7642 47.4832 14.7642 45.8573V30.2894C14.7642 28.6634 16.0823 27.3455 17.7081 27.3455H21.9076C23.5336 27.3455 24.8515 28.6636 24.8515 30.2894V45.8573C24.8515 47.4832 23.5334 48.8013 21.9076 48.8013Z" fill="#FAD989"/>
<path id="Vector_9" d="M36.2214 70H14.582C8.7285 70 3.9834 65.2549 3.9834 59.4001C3.9834 53.5466 8.7285 48.8015 14.582 48.8015H36.0623C35.6186 51.9264 35.3084 55.5945 35.3558 59.6966C35.4004 63.5587 35.753 67.023 36.2214 70Z" fill="#00C755"/>
<path id="Vector_10" d="M62.7032 63.3721C58.3951 64.0384 53.2897 64.5191 47.5526 64.4633C42.5659 64.4149 38.082 63.9706 34.2115 63.3718C33.8919 62.9789 32.6812 61.3969 32.7791 59.0947C32.8605 57.1794 33.8006 55.8744 34.1536 55.4295C37.9018 54.899 42.128 54.5138 46.7584 54.4378C52.7441 54.3396 58.1108 54.7797 62.7032 55.4291V63.3721Z" fill="#F3F5FC"/>
<path id="Vector_11" d="M66.017 66.6859C66.017 68.5168 64.5339 70 62.7029 70H36.2213C35.4214 68.207 34.6425 65.9689 34.2114 63.3718H62.7029C64.534 63.3718 66.017 64.8563 66.017 66.6859Z" fill="#55D47B"/>
<path id="Vector_12" d="M62.703 55.4296H34.1538C34.5411 52.8621 35.2778 50.6282 36.0623 48.8015H62.7031C64.5341 48.8015 66.0172 50.2846 66.0172 52.1156C66.0171 53.9451 64.5341 55.4296 62.703 55.4296Z" fill="#55D47B"/>
<path id="Vector_13" d="M33.8705 58.8013C33.8437 60.4239 33.9747 61.9507 34.2114 63.3717H15.4423C13.2748 63.3717 11.5128 61.6351 11.4719 59.4773C11.4296 57.2505 13.3057 55.4294 15.5324 55.4294H34.1535C33.9917 56.4972 33.8902 57.6225 33.8705 58.8013Z" fill="#D7DDF5"/>
<g id="Group_2">
<path id="Vector_14" d="M25.2661 6.11781V7.80766C25.2661 8.39117 25.739 8.86395 26.3224 8.86395C26.9059 8.86395 27.3787 8.39104 27.3787 7.80766V6.11781C27.3787 5.5343 26.9058 5.06152 26.3224 5.06152C25.739 5.06152 25.2661 5.53443 25.2661 6.11781Z" fill="#485C70"/>
<path id="Vector_15" d="M44.968 7.80766V6.11781C44.968 5.5343 44.4951 5.06152 43.9118 5.06152C43.3282 5.06152 42.8555 5.53443 42.8555 6.11781V7.80766C42.8555 8.39117 43.3284 8.86395 43.9118 8.86395C44.4953 8.86408 44.968 8.39117 44.968 7.80766Z" fill="#485C70"/>
<path id="Vector_16" d="M36.6394 7.06355C36.255 7.5046 35.7001 7.75753 35.117 7.75753C34.5339 7.75753 33.9791 7.5046 33.5948 7.06368C33.2116 6.62386 32.5443 6.57806 32.1046 6.96128C31.6648 7.3445 31.6188 8.01183 32.0022 8.45152C32.7878 9.35318 33.9231 9.87025 35.1172 9.87025C36.311 9.87025 37.4465 9.35318 38.2323 8.45165C38.6155 8.01197 38.5699 7.3445 38.1299 6.96128C37.69 6.57779 37.0229 6.62372 36.6394 7.06355Z" fill="#485C70"/>
</g>
</g>
</g>
</svg>
