<svg width="70" height="70" viewBox="0 0 70 70" fill="none" xmlns="http://www.w3.org/2000/svg">
<g id="book" clip-path="url(#clip0_1163_43)">
<g id="Group">
<g id="Group_2">
<g id="Group_3">
<g id="Group_4">
<path id="Vector" d="M69.9995 59.2843C69.9995 61.2584 68.4057 62.8563 66.4373 62.8563H54.3254C52.2373 60.4754 52.2373 58.0946 54.3254 55.7136L58.946 54.3022L64.3006 55.7136H66.4374C68.4041 55.7136 69.9995 57.3107 69.9995 59.2843Z" fill="#70DCBA"/>
<path id="Vector_2" d="M31.5281 55.7134C29.4816 54.1372 27.4625 54.0918 25.4731 55.7134C25.5534 59.2522 26.8975 61.9099 30.7069 62.8561H31.5281C33.4154 60.4926 33.1801 58.1095 31.5281 55.7134Z" fill="#70DCBA"/>
<path id="Vector_3" d="M19.5436 38.5716L41.3168 41.7874L64.3004 38.5716H66.4372C68.4057 38.5716 69.9994 36.9723 69.9994 34.9995C69.9994 33.0328 68.4099 31.4275 66.4372 31.4275C61.173 31.4275 23.8336 31.4275 18.9028 31.4275C17.7441 33.9751 17.7465 36.3814 19.5436 38.5716Z" fill="#70DCBA"/>
</g>
<path id="Vector_4" d="M25.4734 55.7137L17.1941 47.4438L19.5438 38.5716C19.1824 36.2497 18.9642 33.8631 18.9031 31.4275H15.6746C7.01881 31.4275 0.000488281 38.4641 0.000488281 47.1426C0.000488281 55.8029 6.99926 62.8564 15.6746 62.8564H30.7071C28.7501 60.7348 26.9945 58.3384 25.4734 55.7137Z" fill="#30C99C"/>
<path id="Vector_5" d="M54.3258 0H27.4858C18.1732 7.78517 15.5461 23.0114 18.9033 31.4275H54.3258C63.0345 31.4275 69.9999 24.3402 69.9999 15.7138C69.9999 7.03527 62.9829 0 54.3258 0Z" fill="#7D85D7"/>
<path id="Vector_6" d="M27.4856 0H3.5627C1.60447 0 0.000488281 1.59154 0.000488281 3.57205C0.000488281 5.5434 1.59559 7.14273 3.5627 7.14273H5.69947L10.6372 8.6301C13.4568 9.47939 16.468 9.45014 19.2704 8.54615L23.6213 7.14273C24.741 4.60934 26.0379 2.22086 27.4856 0Z" fill="#6C69D7"/>
<path id="Vector_7" d="M19.1672 24.2847L15.0879 22.959C13.71 22.5112 12.2308 22.4783 10.8344 22.8645L5.69947 24.2846H3.5627C1.58738 24.2846 0.000488281 25.8932 0.000488281 27.8566C0.000488281 29.8294 1.59559 31.4273 3.5627 31.4273H18.9031C18.8433 29.0498 18.9306 26.6837 19.1672 24.2847Z" fill="#6C69D7"/>
<path id="Vector_8" d="M64.3009 38.5715H19.544C17.0127 45.9623 18.2051 52.0536 25.4736 55.7136H64.3009C63.5345 54.5809 61.7414 51.3497 61.6721 47.1426C61.5972 42.6315 63.5472 39.6844 64.3009 38.5715Z" fill="#EFEDFF"/>
<path id="Vector_9" d="M15.6748 38.5715C10.9602 38.5715 7.125 42.4013 7.125 47.1426C7.125 51.8756 10.953 55.7136 15.6748 55.7136H25.4736C22.5741 50.7104 20.526 44.8821 19.544 38.5715H15.6748Z" fill="#D4D4FF"/>
<path id="Vector_10" d="M62.8755 15.7139C62.8755 10.9833 59.0507 7.14282 54.3257 7.14282H23.6215C18.6852 11.4854 16.7787 17.1592 19.1675 24.2849H54.3257C59.0475 24.2849 62.8755 20.4483 62.8755 15.7139Z" fill="#EFEDFF"/>
<path id="Vector_11" d="M23.6215 7.14282H5.69971C6.45344 8.25722 8.40346 11.2028 8.32854 15.7139C8.25922 19.9223 6.46615 23.1522 5.69971 24.2849H19.1676C19.7763 18.1137 21.3301 12.3275 23.6215 7.14282Z" fill="#D4D4FF"/>
<path id="Vector_12" d="M44.3618 17.1178C43.7761 17.1178 43.3013 16.643 43.3013 16.0573V14.3603C43.3013 13.7746 43.7761 13.2998 44.3618 13.2998C44.9475 13.2998 45.4223 13.7746 45.4223 14.3603V16.0573C45.4223 16.643 44.9475 17.1178 44.3618 17.1178Z" fill="#425460"/>
<path id="Vector_13" d="M26.6992 17.1178C26.1135 17.1178 25.6387 16.643 25.6387 16.0573V14.3603C25.6387 13.7746 26.1135 13.2998 26.6992 13.2998C27.2849 13.2998 27.7599 13.7746 27.7599 14.3603V16.0573C27.7597 16.643 27.2849 17.1178 26.6992 17.1178Z" fill="#425460"/>
<path id="Vector_14" d="M32.4023 16.7023C32.018 16.2603 32.0648 15.5904 32.5068 15.2061C32.9489 14.8216 33.6188 14.8685 34.003 15.3105C34.8099 16.2386 36.2516 16.2375 37.0576 15.3105C37.4419 14.8685 38.1118 14.8218 38.5538 15.2061C38.9959 15.5905 39.0426 16.2603 38.6583 16.7023C37.0058 18.6027 34.0532 18.6008 32.4023 16.7023Z" fill="#425460"/>
<path id="Vector_15" d="M50.2899 47.1426H40.8455C31.5288 47.1426 31.3005 61.3023 37.0718 68.3535L40.7134 63.8674C41.856 62.4603 43.9984 62.4603 45.1411 63.8674C45.5857 64.4151 48.5604 68.0795 49.2575 68.9384C50.9613 71.0373 54.3257 69.8085 54.3257 67.1311C54.3257 61.3418 54.3257 57.0258 54.3257 51.1897C54.3258 48.9541 52.5185 47.1426 50.2899 47.1426Z" fill="#F8E86A"/>
<path id="Vector_16" d="M36.8077 51.1899C36.8077 48.9541 38.615 47.1426 40.845 47.1426H35.5656C33.3356 47.1426 31.5283 48.9541 31.5283 51.1899V67.1313C31.5283 69.8252 34.901 71.0272 36.5965 68.9386L37.0713 68.3535C36.9046 67.9936 36.8077 67.5841 36.8077 67.1313C36.8077 63.2878 36.8077 55.0619 36.8077 51.1899Z" fill="#F9CF62"/>
</g>
</g>
</g>
</g>
<defs>
<clipPath id="clip0_1163_43">
<rect width="70" height="70" fill="white"/>
</clipPath>
</defs>
</svg>
