<svg width="71" height="70" viewBox="0 0 71 70" fill="none" xmlns="http://www.w3.org/2000/svg">
<g id="calculator 1">
<g id="Group 67976">
<g id="Group">
<path id="Vector" d="M13.4282 31.2625H41.6595V62.2358H13.4282V31.2625Z" fill="#EEECFF"/>
<path id="Vector_2" d="M22.7287 31.2625H13.4282V62.2357H38.1201C28.9135 54.9838 24.4846 43.0663 22.7287 31.2625Z" fill="#D3D3FF"/>
<path id="Vector_3" d="M41.3727 45.7238H28.429V30.4819C28.429 29.9155 27.9685 29.4565 27.4004 29.4565C26.8324 29.4565 26.3719 29.9155 26.3719 30.4819V45.7238H13.428C12.8599 45.7238 12.3994 46.1827 12.3994 46.7491C12.3994 47.3156 12.8599 47.7745 13.428 47.7745H26.3719V63.0162C26.3719 63.5826 26.8324 64.0416 27.4004 64.0416C27.9685 64.0416 28.429 63.5826 28.429 63.0162V47.7745H41.3727C41.9409 47.7745 42.4013 47.3156 42.4013 46.7491C42.4013 46.1829 41.9408 45.7238 41.3727 45.7238Z" fill="#9CA1E4"/>
<path id="Vector_4" d="M40.2466 31.2625H57.5507V62.2358H40.2466V31.2625Z" fill="#FDC072"/>
<path id="Vector_5" d="M65.5581 26.4239C65.4761 22.2026 65.3169 17.9106 65.0289 13.6557C64.5627 6.76772 59.1288 1.25125 52.2255 0.703555C49.4072 0.48002 46.553 0.304199 43.6907 0.18416C40.8286 0.0641211 37.9584 0 35.1082 0C32.258 0 29.3878 0.0641211 26.5255 0.184023C23.6632 0.304062 20.8089 0.479883 17.9907 0.703418C11.0876 1.25111 5.65365 6.76758 5.18751 13.6556C4.89951 17.9104 4.74029 22.2026 4.65828 26.4238C4.60192 29.3277 4.58203 32.1981 4.58203 34.9999C4.58203 37.8016 4.60192 40.6721 4.65828 43.576C4.74029 47.7973 4.89951 52.0894 5.18751 56.3443C5.65365 63.2323 11.0876 68.7487 17.9908 69.2964C20.8092 69.52 23.6635 69.6959 26.5256 69.8158C29.3878 69.9359 32.258 70 35.1082 70C37.9584 70 40.8286 69.9359 43.6909 69.8158C46.5531 69.6958 49.4074 69.52 52.2257 69.2964C59.1289 68.7487 64.5629 63.2323 65.029 56.3443C65.317 52.0894 65.4762 47.7973 65.5582 43.576C65.6146 40.6721 65.6345 37.8016 65.6345 34.9999C65.6343 32.1982 65.6145 29.3278 65.5581 26.4239ZM55.6619 55.605C55.6619 58.4042 53.3857 60.6733 50.5779 60.6733H36.2859L20.7539 65.5543C17.9461 65.5543 10.625 59.7092 10.625 56.91L11.2388 36.4849C11.2388 33.6859 15.1083 30.482 17.9161 30.482L22.9773 32.8249H50.5779C53.3857 32.8249 55.6619 35.0942 55.6619 37.8932V55.605Z" fill="#4677D4"/>
<path id="Vector_6" d="M26.5255 69.8159C29.3878 69.936 32.258 70.0001 35.1082 70.0001C37.9584 70.0001 40.8286 69.936 43.6909 69.8159C46.5531 69.6959 49.4074 69.5201 52.2257 69.2965C53.053 69.2309 53.8586 69.092 54.6377 68.8898C46.9331 67.9356 40.928 64.9427 36.2861 60.6733H19.6386C16.8308 60.6733 14.5546 58.4041 14.5546 55.605V37.8932C14.5546 35.0941 16.8308 32.8249 19.6386 32.8249H22.9773C20.8287 20.116 21.8841 7.29743 23.5147 0.333252C21.6636 0.435928 19.8192 0.558564 17.9907 0.703486C11.0876 1.25118 5.65365 6.76765 5.18751 13.6557C4.89951 17.9105 4.74029 22.2026 4.65828 26.4238C4.60192 29.3277 4.58203 32.1982 4.58203 34.9999C4.58203 37.8017 4.60192 40.6721 4.65828 43.576C4.74029 47.7974 4.89951 52.0895 5.18751 56.3443C5.65365 63.2324 11.0876 68.7488 17.9908 69.2965C20.8091 69.5201 23.6634 69.696 26.5255 69.8159Z" fill="#005DAF"/>
<path id="Vector_7" d="M50.5779 9.32666H22.1458C19.3629 13.3868 17.4938 20.2333 22.0357 25.0239H50.5779C53.3858 25.0239 55.6619 22.7548 55.6619 19.9556V14.395C55.6619 11.5958 53.3858 9.32666 50.5779 9.32666Z" fill="#38D39A"/>
<path id="Vector_8" d="M19.6386 25.0239H22.0359C21.6106 19.3812 21.7277 13.9662 22.146 9.32666H19.6386C16.8308 9.32666 14.5547 11.5958 14.5547 14.395V19.9556C14.5547 22.7548 16.8308 25.0239 19.6386 25.0239Z" fill="#00C072"/>
<path id="Vector_9" d="M50.8981 45.7296H49.0179V43.8552C49.0179 43.2888 48.5575 42.8298 47.9893 42.8298C47.4211 42.8298 46.9608 43.2888 46.9608 43.8552V45.7296H45.0105C44.4423 45.7296 43.9819 46.1886 43.9819 46.755C43.9819 47.3213 44.4423 47.7804 45.0105 47.7804H46.9608V49.7247C46.9608 50.2911 47.4211 50.7501 47.9893 50.7501C48.5575 50.7501 49.0179 50.2911 49.0179 49.7247V47.7804H50.8981C51.4663 47.7804 51.9266 47.3213 51.9266 46.755C51.9266 46.1887 51.4661 45.7296 50.8981 45.7296Z" fill="#4677D4"/>
<g id="Group_2">
<g id="Group_3">
<path id="Vector_10" d="M23.8685 22.7285C26.1589 22.7285 28.0157 21.2544 28.0157 19.436C28.0157 17.6176 26.1589 16.1436 23.8685 16.1436C21.578 16.1436 19.7212 17.6176 19.7212 19.436C19.7212 21.2544 21.578 22.7285 23.8685 22.7285Z" fill="white"/>
<path id="Vector_11" d="M46.348 22.7285C48.6384 22.7285 50.4952 21.2544 50.4952 19.436C50.4952 17.6176 48.6384 16.1436 46.348 16.1436C44.0575 16.1436 42.2007 17.6176 42.2007 19.436C42.2007 21.2544 44.0575 22.7285 46.348 22.7285Z" fill="white"/>
</g>
<g id="Group_4">
<path id="Vector_12" d="M26.2854 17.292C25.7174 17.292 25.2568 16.8331 25.2568 16.2666V14.5767C25.2568 14.0102 25.7174 13.5513 26.2854 13.5513C26.8534 13.5513 27.3139 14.0102 27.3139 14.5767V16.2666C27.3139 16.8329 26.8536 17.292 26.2854 17.292Z" fill="#425460"/>
<path id="Vector_13" d="M43.9309 17.292C43.3627 17.292 42.9023 16.8331 42.9023 16.2666V14.5767C42.9023 14.0102 43.3627 13.5513 43.9309 13.5513C44.4991 13.5513 44.9595 14.0102 44.9595 14.5767V16.2666C44.9595 16.8329 44.4991 17.292 43.9309 17.292Z" fill="#425460"/>
<path id="Vector_14" d="M35.1081 18.2982C33.9193 18.2982 32.7889 17.7849 32.0066 16.8901C31.6333 16.4633 31.678 15.8155 32.1062 15.4435C32.5343 15.0712 33.1841 15.1156 33.5574 15.5427C33.9489 15.9905 34.5142 16.2474 35.1082 16.2474C35.7021 16.2474 36.2673 15.9905 36.659 15.5427C37.0321 15.1158 37.6818 15.0712 38.1101 15.4435C38.5384 15.8155 38.5828 16.4633 38.2096 16.8901C37.4271 17.7849 36.2966 18.2982 35.1081 18.2982Z" fill="#425460"/>
</g>
</g>
</g>
</g>
</g>
</svg>
