<svg width="37" height="38" viewBox="0 0 37 38" fill="none" xmlns="http://www.w3.org/2000/svg">
<g id="card" clip-path="url(#clip0_642_213)">
<g id="g4884">
<g id="g4886">
<g id="Clip path group">
<mask id="mask0_642_213" style="mask-type:luminance" maskUnits="userSpaceOnUse" x="0" y="0" width="37" height="38">
<g id="clipPath4892">
<path id="path4890" d="M0 3.8147e-06H37V38H0V3.8147e-06Z" fill="white"/>
</g>
</mask>
<g mask="url(#mask0_642_213)">
<g id="g4888">
<g id="g4894">
<path id="path4896" d="M25.9812 37.8426L13.0374 34.2805C10.6545 33.6248 9.24042 31.1092 9.87889 28.662L15.274 7.98302C15.9125 5.53573 18.3617 4.08342 20.7447 4.73914L33.6885 8.30112C36.0713 8.95692 37.4854 11.4723 36.847 13.9197L31.4518 34.5987C30.8134 37.046 28.3641 38.4983 25.9812 37.8426Z" fill="#D9C9F4"/>
</g>
<g id="g4898">
<path id="path4900" d="M15.274 7.98306L9.87889 28.662C9.24042 31.1093 10.6545 33.6248 13.0374 34.2805L15.9286 35.0762L24.7339 32.6531C28.699 31.5619 31.0605 27.3612 29.9981 23.2889L25.4999 6.04781L20.7447 4.73918C18.3618 4.08346 15.9125 5.53577 15.274 7.98306Z" fill="#CABAF7"/>
</g>
<g id="g4902">
<path id="path4904" d="M23.9629 29.699L11.0192 33.261C8.63627 33.9167 6.18697 32.4644 5.5485 30.0171L0.153297 9.33816C-0.48517 6.89087 0.928996 4.37537 3.31181 3.71965L16.2557 0.157597C18.6386 -0.498127 21.0879 0.954185 21.7264 3.40147L27.1215 24.0805C27.7599 26.5277 26.3458 29.0432 23.9629 29.699Z" fill="#FF7591"/>
</g>
<g id="g4906">
<path id="path4908" d="M9.86298 28.8298L4.46792 8.1508C3.82945 5.70352 5.24355 3.18802 7.62643 2.5323L3.31181 3.71965C0.928928 4.37537 -0.485165 6.89087 0.153302 9.33816L5.54844 30.0171C6.1869 32.4644 8.6362 33.9167 11.0191 33.261L15.3337 32.0737C12.9508 32.7295 10.5015 31.2771 9.86298 28.8298Z" fill="#FE5B70"/>
</g>
<g id="g4910">
<path id="path4912" d="M13.5798 10.1586L14.9547 11.7679C15.3408 12.2197 15.9188 12.4475 16.5002 12.3771L18.5705 12.1261C20.0345 11.9486 21.0612 13.5723 20.3079 14.8738L19.2425 16.7141C18.9434 17.2309 18.911 17.8658 19.1559 18.4119L20.0281 20.3564C20.6449 21.7317 19.4585 23.2363 18.0205 22.9026L15.9872 22.4308C15.4161 22.2982 14.8182 22.4628 14.3882 22.8708L12.8569 24.3235C11.7741 25.351 10.0141 24.6572 9.87878 23.1494L9.68742 21.0176C9.63373 20.4189 9.29654 19.8857 8.78584 19.5917L6.96727 18.545C5.68123 17.8047 5.77988 15.8713 7.13428 15.2732L9.04939 14.4276C9.58712 14.19 9.97677 13.6959 10.0912 13.1062L10.4984 11.0066C10.7865 9.52162 12.6074 9.02057 13.5798 10.1586Z" fill="#FFF18F"/>
</g>
<g id="g4914">
<path id="path4916" d="M19.8471 19.9531C16.6972 19.801 13.8671 17.5892 13.0073 14.2937C12.6057 12.7544 12.6919 11.1991 13.1677 9.80007C12.1645 9.16602 10.7494 9.71249 10.4984 11.0065L10.0911 13.1062C9.97671 13.6959 9.58705 14.19 9.04932 14.4275L7.13421 15.2732C5.77988 15.8713 5.68124 17.8048 6.96728 18.545L8.78584 19.5917C9.29647 19.8857 9.63366 20.4188 9.68736 21.0176L9.87879 23.1494C10.0141 24.6572 11.774 25.351 12.8569 24.3236L14.3882 22.8708C14.8181 22.4628 15.4161 22.2983 15.9871 22.4308L18.0205 22.9026C19.4585 23.2363 20.6448 21.7317 20.0281 20.3565L19.8471 19.9531Z" fill="#FFDE83"/>
</g>
<g id="g4918">
<path id="path4920" d="M9.67578 16.4318L9.86266 17.1479" stroke="#6A89A5" stroke-miterlimit="10" stroke-linecap="round" stroke-linejoin="round"/>
</g>
<g id="g4922">
<path id="path4924" d="M16.9336 14.4343L17.1205 15.1504" stroke="#6A89A5" stroke-miterlimit="10" stroke-linecap="round" stroke-linejoin="round"/>
</g>
<g id="g4926">
<path id="path4928" d="M12.5288 16.391C12.833 16.6012 13.2205 16.6804 13.6023 16.5753C13.9843 16.4702 14.2812 16.2026 14.4423 15.8645" stroke="#6A89A5" stroke-miterlimit="10" stroke-linecap="round" stroke-linejoin="round"/>
</g>
</g>
</g>
</g>
</g>
</g>
</g>
<defs>
<clipPath id="clip0_642_213">
<rect width="37" height="38" fill="white"/>
</clipPath>
</defs>
</svg>
