<svg width="38" height="38" viewBox="0 0 38 38" fill="none" xmlns="http://www.w3.org/2000/svg">
<g id="checklist" clip-path="url(#clip0_642_238)">
<g id="Group">
<path id="Vector" d="M37.6554 29.6964C37.6954 28.636 37.7334 27.5005 37.7659 26.3104C37.8284 24.0207 37.871 21.5317 37.871 19C37.871 16.4683 37.8284 13.9793 37.7659 11.6896C37.7033 9.39988 37.6209 7.30958 37.5411 5.57539C37.4094 2.70884 35.122 0.411172 32.256 0.267707C29.5106 0.130254 25.8705 0 21.937 0C18.0035 0 14.3634 0.130254 11.6179 0.267707C8.75192 0.411172 6.46457 2.70884 6.33283 5.57539C6.25312 7.30958 6.17066 9.39988 6.1081 11.6896C6.04553 13.9793 6.00293 16.4683 6.00293 19C6.00293 21.5317 6.04553 24.0207 6.1081 26.3104C6.17066 28.6001 6.25312 30.6904 6.33283 32.4246C6.46457 35.2912 8.75199 37.5888 11.6179 37.7323C14.3634 37.8697 18.0034 38.0001 21.937 38.0001C23.4008 38.0001 24.8239 37.982 26.1755 37.9523C28.3677 37.3568 30.7145 36.1374 32.8575 34.5229C34.6768 33.152 36.3492 31.4966 37.6554 29.6964Z" fill="#EEECFF"/>
<path id="Vector_2" d="M6.1081 26.3102C6.17066 28.5999 6.25312 30.6902 6.33283 32.4244C6.46457 35.291 8.75199 37.5886 11.6179 37.7321C14.3634 37.8696 18.0034 37.9999 21.937 37.9999C22.2908 37.9999 22.6421 37.9988 22.9908 37.9968C14.1576 33.8939 10.015 11.382 14.9234 0.126953C13.7235 0.168961 12.6119 0.217797 11.6179 0.267523C8.75192 0.410988 6.46457 2.70865 6.33283 5.5752C6.25312 7.3094 6.17066 9.39969 6.1081 11.6894C6.04553 13.9791 6.00293 16.4681 6.00293 18.9998C6.00293 21.5315 6.04553 24.0205 6.1081 26.3102Z" fill="#D3D3FF"/>
<path id="Vector_3" d="M37.6556 29.6963C37.5753 31.7991 35.9193 33.7524 33.7366 35.2312C31.3905 36.8208 28.436 37.8623 26.1758 37.9521C27.2838 37.1479 28.0453 36.3052 28.5587 35.3904C29.0977 34.43 29.3633 33.3901 29.4694 32.2314C29.5755 31.0721 30.6682 30.2587 31.8124 30.4732C32.6905 30.6378 33.6222 30.7043 34.5855 30.606C35.5834 30.5042 36.6149 30.2255 37.6556 29.6963Z" fill="#D3D3FF"/>
<path id="Vector_4" d="M20.014 10.2656H15.0586C14.7512 10.2656 14.502 10.0165 14.502 9.70898C14.502 9.4015 14.7512 9.15234 15.0586 9.15234H20.014C20.3214 9.15234 20.5707 9.4015 20.5707 9.70898C20.5707 10.0165 20.3214 10.2656 20.014 10.2656Z" fill="#9CA1E4"/>
<path id="Vector_5" d="M20.014 22.4404H15.0586C14.7512 22.4404 14.502 22.1913 14.502 21.8838C14.502 21.5763 14.7512 21.3271 15.0586 21.3271H20.014C20.3214 21.3271 20.5707 21.5763 20.5707 21.8838C20.5707 22.1913 20.3214 22.4404 20.014 22.4404Z" fill="#9CA1E4"/>
<path id="Vector_6" d="M30.3579 13.6963H26.1255C25.1131 13.6963 24.2925 12.8756 24.2925 11.8633V7.63083C24.2925 6.61849 25.1132 5.79785 26.1255 5.79785H30.3579C31.3703 5.79785 32.1909 6.61849 32.1909 7.63083V11.8633C32.1909 12.8756 31.3703 13.6963 30.3579 13.6963Z" fill="#38D39A"/>
<path id="Vector_7" d="M27.4167 11.0035L26.5542 10.1409C26.3368 9.92346 26.3368 9.57107 26.5542 9.35368C26.7715 9.13637 27.124 9.13637 27.3413 9.35368L27.8103 9.82267L29.1418 8.49111C29.3592 8.2738 29.7116 8.2738 29.929 8.49111C30.1463 8.70857 30.1463 9.06096 29.929 9.27835L28.2038 11.0035C27.9866 11.2207 27.634 11.2207 27.4167 11.0035Z" fill="white"/>
<path id="Vector_8" d="M30.3579 25.833H26.1255C25.1131 25.833 24.2925 25.0124 24.2925 24V19.7676C24.2925 18.7552 25.1132 17.9346 26.1255 17.9346H30.3579C31.3703 17.9346 32.1909 18.7552 32.1909 19.7676V24C32.1909 25.0123 31.3703 25.833 30.3579 25.833Z" fill="#38D39A"/>
<path id="Vector_9" d="M27.4167 23.1401L26.5542 22.2776C26.3368 22.0601 26.3368 21.7077 26.5542 21.4903C26.7715 21.273 27.124 21.273 27.3413 21.4903L27.8103 21.9593L29.1418 20.6278C29.3592 20.4105 29.7116 20.4105 29.929 20.6278C30.1463 20.8453 30.1463 21.1977 29.929 21.4151L28.2038 23.1401C27.9865 23.3575 27.6342 23.3575 27.4167 23.1401Z" fill="white"/>
<g id="Group_2">
<path id="Vector_10" d="M14.7207 28.8414L17.9942 25.5679L20.5848 28.1585C21.4888 29.0625 21.4888 30.5281 20.5848 31.432C19.6808 32.336 18.2153 32.336 17.3113 31.432L14.7207 28.8414Z" fill="#59D5FF"/>
<path id="Vector_11" d="M18.1556 22.9091C17.5518 22.1775 16.8109 21.3005 15.9814 20.3606C15.4415 20.3606 14.3689 19.9214 13.511 19.0635C13.2789 18.8313 12.2479 17.9346 12.0109 16.1746C11.1887 15.3773 10.3557 14.6094 9.55956 13.8998C9.38492 13.7442 9.21273 13.5922 9.04218 13.4424C6.17206 16.1746 5.87445 22.3111 9.51317 26.8288C10.453 27.6583 11.33 28.3992 12.0616 29.0031C13.2188 29.9582 14.9118 29.8772 15.9727 28.8161L17.9687 26.8202C19.0296 25.7591 19.1108 24.0662 18.1556 22.9091Z" fill="#4677D4"/>
<path id="Vector_12" d="M8.29528 21.8002C8.04665 18.8494 8.35198 15.6906 9.04229 13.4422C8.35451 12.8382 7.70317 12.2832 7.12277 11.7987C5.717 10.6249 3.64852 10.7172 2.35348 12.0121L1.16501 13.2006C-0.130031 14.4956 -0.222285 16.564 0.951559 17.9698C1.55637 18.6942 2.26924 19.528 3.05247 20.4067C3.76207 21.2029 4.52994 22.0359 5.32727 22.8581C5.8569 22.9984 7.17762 23.7756 8.03277 24.5507L8.29528 21.8002Z" fill="#005DAF"/>
<path id="Vector_13" d="M15.1798 19.4643C14.4038 18.608 13.5704 17.7228 12.7125 16.865C12.4803 16.6327 12.2459 16.4027 12.0109 16.1748L8.21074 19.975C7.63458 22.4815 8.01933 24.8299 9.4208 26.7472C9.45138 26.7743 9.48255 26.8023 9.51306 26.8291L15.9814 20.3608C15.7223 20.0672 15.4548 19.7677 15.1798 19.4643Z" fill="#59D5FF"/>
<path id="Vector_14" d="M8.21084 19.9746L5.32715 22.8582C5.55507 23.0933 5.78515 23.3277 6.01731 23.5598C6.87402 24.4165 7.75804 25.2489 8.61326 26.024C8.88631 26.2715 9.15565 26.512 9.42091 26.7468C8.60717 24.8854 8.23474 22.4235 8.21084 19.9746Z" fill="#00C4FC"/>
<path id="Vector_15" d="M13.7085 13.3787C13.0946 12.5828 12.1461 12.253 11.2542 12.3877C10.9745 12.4299 10.6916 12.3352 10.4916 12.1351L9.87057 11.5142C8.66133 11.7484 7.37437 13.4267 8.55401 15.5382L9.80712 16.7913C10.8903 17.8745 12.6921 17.8009 13.6776 16.5705C14.4162 15.6483 14.4301 14.3141 13.7085 13.3787Z" fill="#FDC072"/>
<path id="Vector_16" d="M8.55398 15.5382C8.8395 13.8775 9.29172 12.4473 9.87055 11.5142L8.53105 10.1747C7.96283 9.60648 7.04163 9.60648 6.47341 10.1747L5.86073 10.7874C5.29252 11.3556 5.29252 12.2768 5.86073 12.845L8.55398 15.5382Z" fill="#FF9A5C"/>
</g>
</g>
</g>
<defs>
<clipPath id="clip0_642_238">
<rect width="38" height="38" fill="white"/>
</clipPath>
</defs>
</svg>
