<svg width="70" height="70" viewBox="0 0 70 70" fill="none" xmlns="http://www.w3.org/2000/svg">
<g id="chemistry" clip-path="url(#clip0_1163_595)">
<g id="Group">
<g id="Group_2">
<path id="Vector" d="M49.3406 28.4568C47.3297 25.6512 46.2479 22.287 46.2479 18.835V11.7375L45.0048 10.0051H32.6664L31.3993 11.7375V18.8351C31.3993 22.287 30.3174 25.6512 28.3066 28.457L25.4542 32.4349L23.7808 36.5321V42.0001L25.3886 43.7205H57.1545L57.913 40.4133L49.3406 28.4568Z" fill="#D4D4FF"/>
<path id="Vector_2" d="M46.2479 11.7374V5.25586H31.3994V11.7373C32.6213 11.7374 44.2919 11.7374 46.2479 11.7374Z" fill="#B9BBFD"/>
<path id="Vector_3" d="M51.5507 4.24238C51.5507 1.89916 49.6516 0 47.3084 0H35.0737C30.3387 0 28.4297 1.90066 28.4297 4.24238C28.4297 6.58561 30.869 8.48477 35.0737 8.48477H47.3084C49.6502 8.4849 51.5507 6.58424 51.5507 4.24238Z" fill="#EFEDFF"/>
<path id="Vector_4" d="M30.8312 4.24238C30.8312 1.90066 32.7317 0 35.0736 0H30.3386C27.9967 0 26.0962 1.90066 26.0962 4.24238C26.0962 6.58561 27.9954 8.48477 30.3386 8.48477H35.0736C32.7305 8.4849 30.8312 6.58561 30.8312 4.24238Z" fill="#D4D4FF"/>
<path id="Vector_5" d="M25.4548 32.4348L21.2124 38.3516V43.7205H25.3893C25.4326 43.2942 25.4549 42.8618 25.4549 42.4243L25.4548 32.4348Z" fill="#D4D4FF"/>
<path id="Vector_6" d="M68.1756 54.7259L57.9132 40.4134C54.4584 39.2863 52.9933 37.1213 47.3735 37.1213C39.7725 37.1213 39.7725 41.081 32.1715 41.081C29.105 41.081 27.155 40.6044 25.4544 39.9887C25.293 40.1375 27.3435 38.2465 9.46975 54.7289C4.89419 61.1149 9.45882 70 17.316 70H60.3315C68.1898 70 72.7532 61.1121 68.1756 54.7259Z" fill="#FF788B"/>
<path id="Vector_7" d="M25.4543 42.4243V39.9886C24.0342 39.4746 22.7878 38.8637 21.212 38.3516C20.775 38.9609 9.90162 54.1264 9.46973 54.7288C10.2739 54.9412 11.1094 55.078 11.9694 55.1286C19.3297 55.5616 25.4543 49.6905 25.4543 42.4243Z" fill="#FF5A6F"/>
<path id="Vector_8" d="M6.95264 21.8013V42.4242C6.95264 46.2894 8.74393 50.5718 15.0946 50.5718C18.6283 49.5468 21.212 46.2886 21.212 42.4242C21.212 40.5025 21.212 25.3271 21.212 23.404L19.9158 21.8013H6.95264Z" fill="#D4D4FF"/>
<path id="Vector_9" d="M21.2123 23.4041V16.6633C19.5322 16.6633 5.83477 16.6633 4.24268 16.6633V42.4243C4.24268 46.9411 7.76947 50.6319 12.2198 50.8936C13.1971 50.951 14.1564 50.8442 15.095 50.5719C11.5611 49.5477 8.97752 46.2895 8.97752 42.4243V26.6932C8.97752 24.8767 10.4501 23.4041 12.2666 23.4041H21.2123Z" fill="#B9BBFD"/>
<path id="Vector_10" d="M25.4547 15.9091C25.4547 13.5659 23.5555 11.6667 21.2123 11.6667H8.97748C4.2425 11.6667 2.3335 13.5674 2.3335 15.9091C2.3335 18.2524 4.77283 20.1515 8.97748 20.1515H21.2122C23.5542 20.1515 25.4547 18.2509 25.4547 15.9091Z" fill="#EFEDFF"/>
<path id="Vector_11" d="M4.73498 15.9091C4.73498 13.5674 6.63551 11.6667 8.97736 11.6667H4.24238C1.90053 11.6666 0 13.5673 0 15.9091C0 18.2524 1.89916 20.1515 4.24238 20.1515H8.97736C6.63414 20.1515 4.73498 18.2524 4.73498 15.9091Z" fill="#D4D4FF"/>
<path id="Vector_12" d="M50.0297 53.8745C52.3107 53.8816 54.1562 55.3608 54.1506 57.1779C54.1449 58.9951 52.2909 60.4615 50.0085 60.4545C47.7275 60.4474 45.8821 58.9683 45.8892 57.1525C45.8948 55.3354 47.7487 53.8674 50.0297 53.8745Z" fill="white"/>
<path id="Vector_13" d="M38.8195 58.3292C36.9797 58.3236 35.4949 56.6506 35.5005 54.5916C35.5076 52.534 36.9995 52.3445 38.8379 52.3502C40.6778 52.3558 42.1683 52.5539 42.1625 54.6128C42.1554 56.6704 40.6593 58.3348 38.8195 58.3292Z" fill="#293345"/>
<path id="Vector_14" d="M27.6377 53.8052C29.9188 53.8123 31.7642 55.2901 31.7586 57.1072C31.753 58.9244 29.8989 60.3908 27.6179 60.3838C25.3355 60.3767 23.4915 58.8989 23.4971 57.0818C23.5028 55.2645 25.3567 53.7981 27.6377 53.8052Z" fill="white"/>
<g id="Group_3">
<path id="Vector_15" d="M32.0134 54.5886C32.0124 54.5886 32.0115 54.5886 32.0105 54.5886C31.4248 54.5871 30.9512 54.1111 30.9527 53.5252C30.9533 53.283 30.8599 53.0553 30.6894 52.8839C30.3494 52.5418 29.7767 52.5139 29.4084 52.8802C29.2368 53.0507 29.1419 53.2778 29.1412 53.5196C29.1397 54.1045 28.6652 54.5774 28.0807 54.5774C28.0797 54.5774 28.0788 54.5774 28.0778 54.5774C27.4921 54.5759 27.0184 54.0999 27.02 53.514C27.0244 51.8644 28.359 50.4961 30.0452 50.4961C31.7155 50.4961 33.0783 51.8451 33.0739 53.5307C33.0724 54.1156 32.5979 54.5886 32.0134 54.5886Z" fill="#293345"/>
<path id="Vector_16" d="M49.5899 54.6439C49.589 54.6439 49.588 54.6439 49.5871 54.6439C49.0014 54.6424 48.5276 54.1664 48.5293 53.5805C48.5305 53.0811 48.1258 52.674 47.6271 52.6726C47.6258 52.6726 47.6246 52.6726 47.6235 52.6726C47.129 52.6726 46.7191 53.0709 46.7179 53.5748C46.7164 54.1597 46.2418 54.6326 45.6574 54.6326C45.6564 54.6326 45.6554 54.6326 45.6545 54.6326C45.0688 54.6311 44.595 54.155 44.5967 53.5692C44.6011 51.9015 45.952 50.5513 47.6221 50.5513C49.3056 50.5513 50.655 51.9216 50.6506 53.586C50.6489 54.1709 50.1744 54.6439 49.5899 54.6439Z" fill="#293345"/>
</g>
</g>
</g>
</g>
<defs>
<clipPath id="clip0_1163_595">
<rect width="70" height="70" fill="white"/>
</clipPath>
</defs>
</svg>
