<svg width="70" height="70" viewBox="0 0 70 70" fill="none" xmlns="http://www.w3.org/2000/svg">
<g id="computer 2" clip-path="url(#clip0_1163_484)">
<g id="Group">
<path id="Vector" d="M37.1214 60.455H13.7876L19.0911 47.7268H31.8179L37.1214 60.455Z" fill="#2B4182"/>
<path id="Vector_2" d="M24.7523 60.455H13.7876L19.0911 47.7268H24.2269L24.4904 51.9695C24.4904 51.9695 21.8957 55.1375 24.4904 59.2127C24.7693 59.6507 24.8425 60.065 24.7523 60.455Z" fill="#3B5A9B"/>
<path id="Vector_3" d="M69.9998 11.6506V58.3491C69.9998 60.6833 68.108 62.575 65.7739 62.575H42.4246L40.3032 60.455V11.6506C40.3032 10.8843 40.5075 10.1645 40.8666 9.54477C41.5949 8.27697 42.9627 7.4248 44.5291 7.4248H65.7739C68.108 7.4248 69.9998 9.31645 69.9998 11.6506Z" fill="#3E5A9F"/>
<path id="Vector_4" d="M55.1519 19.8754V45.8814C55.1519 50.1097 52.7283 53.7441 49.2573 55.3427C48.1883 55.8351 47.7642 57.1072 48.2717 58.169C48.6025 58.8612 48.7878 59.6362 48.7878 60.4549C48.7878 61.2085 48.63 61.9255 48.3455 62.5749H42.425L40.3037 60.4549V11.6506C40.3037 10.8842 40.508 10.1644 40.8671 9.54468H45.2916C50.7373 9.54468 55.1519 14.1692 55.1519 19.8754Z" fill="#2B4182"/>
<path id="Vector_5" d="M65.7572 15.9004V18.0387C65.7572 19.2051 64.8121 20.1517 63.6443 20.1517H44.5449V15.9006C44.5449 15.2498 44.8408 14.6666 45.3041 14.2792L53.2572 13.7876H63.6444C64.8121 13.7875 65.7572 14.7341 65.7572 15.9004Z" fill="#A4E7FF"/>
<path id="Vector_6" d="M55.1518 19.8754V20.1515H44.5449V15.9003C44.5449 14.734 45.4916 13.7874 46.6579 13.7874H53.2573C54.4488 15.4946 55.1518 17.5991 55.1518 19.8754Z" fill="#5AD6FF"/>
<path id="Vector_7" d="M65.7574 28.6273V30.7655C65.7574 31.9333 64.8122 32.8785 63.6444 32.8785H55.1518L52.8178 32.4249L50.909 32.8785H44.5449V26.5144H50.909L52.8529 27.0032L55.1518 26.5144H63.6444C64.8122 26.5143 65.7574 27.4609 65.7574 28.6273Z" fill="#A4E7FF"/>
<path id="Vector_8" d="M44.5449 26.5144H55.1518V32.8785H44.5449V26.5144Z" fill="#5AD6FF"/>
<path id="Vector_9" d="M50.909 22.2393V43.5179C50.909 48.186 47.1255 51.9696 42.4573 51.9696H24.4903L20.7785 51.3963L17.3232 51.9696H8.45168C3.78355 51.9696 0 48.186 0 43.5178V22.2393C0 17.5712 3.78355 13.7876 8.45168 13.7876H42.4572C47.1255 13.7875 50.909 17.571 50.909 22.2393Z" fill="#3E5A9F"/>
<path id="Vector_10" d="M24.4903 51.9696H8.45168C3.78355 51.9696 0 48.186 0 43.5178V22.2393C0 17.5712 3.78355 13.7876 8.45168 13.7876H21.6984C18.2149 19.2051 10.0181 35.5211 24.4903 51.9696Z" fill="#2B4182"/>
<path id="Vector_11" d="M46.6661 22.2561V43.501C46.6661 45.835 44.7743 47.7268 42.4403 47.7268H8.46852C6.13445 47.7268 4.24268 45.835 4.24268 43.501V22.2561C4.24268 19.9221 6.13445 18.0303 8.46852 18.0303H42.4403C44.7743 18.0303 46.6661 19.9221 46.6661 22.2561Z" fill="#EDECF9"/>
<path id="Vector_12" d="M21.2363 47.7268H8.46852C6.13445 47.7268 4.24268 45.835 4.24268 43.501V22.2561C4.24268 19.9221 6.13445 18.0303 8.46852 18.0303H19.3684C16.2737 24.6748 13.4607 35.924 21.2363 47.7268Z" fill="#DDDCF2"/>
<path id="Vector_13" d="M44.545 60.455C44.545 61.0396 44.3084 61.5706 43.9238 61.9538C43.5407 62.3384 43.0095 62.5749 42.4251 62.5749H8.48422C7.31363 62.5749 6.36426 61.6255 6.36426 60.455C6.36426 59.869 6.60228 59.3378 6.98551 58.9547C7.36859 58.5715 7.89824 58.3335 8.48422 58.3335H14.6722L18.3092 59.2196L24.0015 58.3335H42.4249C43.5955 58.3336 44.545 59.2831 44.545 60.455Z" fill="#3E5A9F"/>
<path id="Vector_14" d="M24.0017 62.5749H8.48422C7.31363 62.5749 6.36426 61.6255 6.36426 60.455C6.36426 59.869 6.60228 59.3378 6.98551 58.9547C7.36859 58.5715 7.89824 58.3335 8.48422 58.3335H24.0015C24.0017 58.3336 22.3803 60.2325 24.0017 62.5749Z" fill="#2B4182"/>
<path id="Vector_15" d="M62.5759 45.6059C64.3332 45.6059 65.7578 44.1813 65.7578 42.424C65.7578 40.6668 64.3332 39.2422 62.5759 39.2422C60.8186 39.2422 59.394 40.6668 59.394 42.424C59.394 44.1813 60.8186 45.6059 62.5759 45.6059Z" fill="#F4E74D"/>
<path id="Vector_16" d="M62.5759 56.2121C64.3332 56.2121 65.7578 54.7875 65.7578 53.0302C65.7578 51.273 64.3332 49.8484 62.5759 49.8484C60.8186 49.8484 59.394 51.273 59.394 53.0302C59.394 54.7875 60.8186 56.2121 62.5759 56.2121Z" fill="#FF9EB1"/>
<g id="Group_2">
<g id="Group_3">
<path id="Vector_17" d="M14.2482 36.9551C16.5319 36.9551 18.3831 35.4809 18.3831 33.6623C18.3831 31.8437 16.5319 30.3694 14.2482 30.3694C11.9645 30.3694 10.1133 31.8437 10.1133 33.6623C10.1133 35.4809 11.9645 36.9551 14.2482 36.9551Z" fill="#FFA1AC"/>
<path id="Vector_18" d="M36.6613 36.9551C38.9449 36.9551 40.7962 35.4809 40.7962 33.6623C40.7962 31.8437 38.9449 30.3694 36.6613 30.3694C34.3776 30.3694 32.5264 31.8437 32.5264 33.6623C32.5264 35.4809 34.3776 36.9551 36.6613 36.9551Z" fill="#FFA1AC"/>
</g>
<g id="Group_4">
<path id="Vector_19" d="M16.658 31.5488C16.0745 31.5488 15.6016 31.0759 15.6016 30.4924V28.802C15.6016 28.2185 16.0746 27.7456 16.658 27.7456C17.2415 27.7456 17.7144 28.2185 17.7144 28.802V30.4924C17.7146 31.0758 17.2415 31.5488 16.658 31.5488Z" fill="#2B4182"/>
</g>
<g id="Group_5">
<path id="Vector_20" d="M34.2512 31.5488C33.6677 31.5488 33.1948 31.0759 33.1948 30.4924V28.802C33.1948 28.2185 33.6679 27.7456 34.2512 27.7456C34.8346 27.7456 35.3077 28.2185 35.3077 28.802V30.4924C35.3077 31.0758 34.8348 31.5488 34.2512 31.5488Z" fill="#2B4182"/>
</g>
<g id="Group_6">
<path id="Vector_21" d="M25.4548 32.5551C24.2607 32.5551 23.125 32.0379 22.3391 31.1361C21.9558 30.6962 22.0016 30.0288 22.4415 29.6455C22.8815 29.2623 23.5488 29.3081 23.9322 29.7479C24.3166 30.1892 24.8717 30.4421 25.455 30.4421C26.0382 30.4421 26.5931 30.1892 26.9777 29.7479C27.3611 29.3079 28.0284 29.2623 28.4684 29.6455C28.9082 30.0288 28.954 30.6962 28.5708 31.1361C27.7845 32.0378 26.6489 32.5551 25.4548 32.5551Z" fill="#2B4182"/>
</g>
</g>
</g>
</g>
<defs>
<clipPath id="clip0_1163_484">
<rect width="70" height="70" fill="white"/>
</clipPath>
</defs>
</svg>
