<svg width="70" height="70" viewBox="0 0 70 70" fill="none" xmlns="http://www.w3.org/2000/svg">
<g id="dna" clip-path="url(#clip0_1163_123)">
<g id="Group">
<g id="Group_2">
<path id="Vector" d="M63.0315 21.3898L48.6102 6.9685C47.4146 5.77287 45.4761 5.77287 44.2805 6.9685C43.0849 8.16414 43.0849 10.1026 44.2805 11.2982L58.7018 25.7195C59.8974 26.9151 61.8359 26.9151 63.0315 25.7195C64.2271 24.5239 64.2271 22.5854 63.0315 21.3898Z" fill="#76E6D5"/>
<path id="Vector_2" d="M55.1926 29.2282L40.7714 14.8069C39.5757 13.6112 37.6373 13.6112 36.4416 14.8069C35.246 16.0025 35.246 17.941 36.4416 19.1366L50.8629 33.5579C52.0585 34.7535 53.997 34.7535 55.1926 33.5579C56.3883 32.3622 56.3883 30.4238 55.1926 29.2282Z" fill="#76E6D5"/>
<path id="Vector_3" d="M25.7195 58.7015L11.2982 44.2803C10.1026 43.0846 8.16414 43.0846 6.9685 44.2803C5.77287 45.4759 5.77287 47.4144 6.9685 48.61L21.3898 63.0313C22.5854 64.2269 24.5239 64.2269 25.7195 63.0313C26.9151 61.8356 26.9151 59.8972 25.7195 58.7015Z" fill="#76E6D5"/>
<path id="Vector_4" d="M33.5579 50.8632L19.1366 36.4419C17.941 35.2463 16.0025 35.2463 14.8069 36.4419C13.6112 37.6375 13.6112 39.576 14.8069 40.7716L29.2282 55.1929C30.4238 56.3885 32.3622 56.3885 33.5579 55.1929C34.7535 53.9972 34.7535 52.0588 33.5579 50.8632Z" fill="#76E6D5"/>
</g>
<path id="Vector_5" d="M25.7197 58.7016L22.7319 55.7139L18.4025 60.0434L18.4023 60.0436L21.3901 63.0313C22.5857 64.227 24.5242 64.2268 25.7198 63.0313C26.9153 61.8357 26.9153 59.8972 25.7197 58.7016Z" fill="#00D6BC"/>
<path id="Vector_6" d="M28.8529 46.1582C28.5395 48.3252 27.6418 50.4052 26.1973 52.162L29.2282 55.193C30.4239 56.3886 32.3623 56.3886 33.558 55.193C34.7536 53.9974 34.7536 52.0589 33.558 50.8633L28.8529 46.1582Z" fill="#00D6BC"/>
<path id="Vector_7" d="M40.7719 14.8069C39.5762 13.6112 37.6378 13.6112 36.4421 14.8069C35.2465 16.0025 35.2465 17.941 36.4421 19.1366L41.1472 23.8415C41.4606 21.6745 42.3583 19.5945 43.8028 17.8377L40.7719 14.8069Z" fill="#00D6BC"/>
<path id="Vector_8" d="M48.6102 6.9685C47.4146 5.77287 45.4761 5.77287 44.2805 6.9685C43.0849 8.16414 43.0849 10.1026 44.2805 11.2982L47.2683 14.286L51.598 9.95625L48.6102 6.9685Z" fill="#00D6BC"/>
<path id="Vector_9" d="M48.6102 1.19556C47.0161 -0.398521 44.4313 -0.398521 42.8372 1.19556L35.8517 8.18106C32.1368 11.896 29.7445 16.6034 28.9337 21.7943C28.1229 26.9851 28.9657 32.1978 31.3707 36.8688C34.6605 43.2578 33.4568 50.9646 28.3753 56.046L21.3899 63.0313C19.7958 64.6254 19.7958 67.2102 21.3899 68.8043C22.984 70.3984 25.5688 70.3984 27.1629 68.8043L34.1482 61.8189C37.8633 58.1039 40.2555 53.3965 41.0662 48.2056C41.8769 43.0146 41.0343 37.802 38.6292 33.1312C35.3395 26.7422 36.5433 19.0354 41.6247 13.954L48.6102 6.96852C50.2043 5.37429 50.2043 2.78965 48.6102 1.19556Z" fill="#F9F097"/>
<path id="Vector_10" d="M14.286 47.268L11.2982 44.2803C10.1026 43.0846 8.16414 43.0846 6.9685 44.2803C5.77287 45.4759 5.77287 47.4144 6.9685 48.61L9.95625 51.5977L14.286 47.268Z" fill="#00D6BC"/>
<path id="Vector_11" d="M23.8369 41.1422L19.1366 36.4419C17.941 35.2463 16.0025 35.2463 14.8069 36.4419C13.6112 37.6375 13.6112 39.576 14.8069 40.7716L17.8356 43.8005C19.5708 42.3698 21.6348 41.4582 23.8369 41.1422Z" fill="#00D6BC"/>
<path id="Vector_12" d="M55.7139 22.7318L58.7016 25.7196C59.8972 26.9152 61.8357 26.9152 63.0313 25.7196C64.227 24.5239 64.227 22.5855 63.0313 21.3898L60.0436 18.4021L55.7139 22.7318Z" fill="#00D6BC"/>
<path id="Vector_13" d="M46.1631 28.8576L50.8634 33.5579C52.059 34.7535 53.9975 34.7535 55.1931 33.5579C56.3887 32.3623 56.3887 30.4238 55.1931 29.2282L52.1644 26.1995C50.4291 27.63 48.3652 28.5417 46.1631 28.8576Z" fill="#00D6BC"/>
<path id="Vector_14" d="M36.8318 26.6917C34.206 25.5744 31.4717 24.8645 28.6583 24.5693C28.4742 28.8265 29.3945 33.0305 31.3708 36.8688C32.4284 38.9227 33.019 41.1129 33.1683 43.3082C35.7941 44.4254 38.5284 45.1353 41.3418 45.4306C41.5259 41.1734 40.6055 36.9695 38.6291 33.1313C37.5717 31.0771 36.9811 28.8871 36.8318 26.6917Z" fill="#FBC072"/>
<path id="Vector_15" d="M68.8043 21.3899C67.2102 19.7958 64.6254 19.7958 63.0313 21.3899L56.0458 28.3754C50.9644 33.4568 43.2577 34.6606 36.8687 31.3709C32.1978 28.9658 26.9851 28.123 21.7943 28.9338C16.6035 29.7447 11.896 32.1369 8.18091 35.8519L1.19556 42.8372C-0.398521 44.4313 -0.398521 47.0161 1.19556 48.6102C2.78965 50.2043 5.37444 50.2043 6.96852 48.6102L13.9539 41.6248C19.0354 36.5433 26.7422 35.3396 33.1311 38.6293C37.802 41.0344 43.0147 41.8772 48.2056 41.0664C53.3964 40.2555 58.1037 37.8633 61.8188 34.1484L68.8043 27.1629C70.3985 25.5688 70.3985 22.984 68.8043 21.3899Z" fill="#B08BD7"/>
</g>
</g>
<defs>
<clipPath id="clip0_1163_123">
<rect width="70" height="70" fill="white"/>
</clipPath>
</defs>
</svg>
