<svg width="38" height="38" viewBox="0 0 38 38" fill="none" xmlns="http://www.w3.org/2000/svg">
<g id="doubts 1" clip-path="url(#clip0_642_334)">
<g id="Group">
<path id="Vector" d="M3.62793 31.2568C2.57239 30.6351 2.22066 29.2754 2.8424 28.2199C3.35933 27.3422 4.025 26.3831 4.71672 25.5191C5.82844 24.131 6.86958 23.1381 7.81164 22.568C8.85968 21.9335 10.2235 22.269 10.8578 23.317C11.4921 24.3649 11.1568 25.7287 10.1089 26.363C9.74808 26.5815 9.05183 27.2029 8.17954 28.2921C7.61585 28.996 7.07791 29.77 6.66481 30.4713C6.04315 31.527 4.68354 31.8785 3.62793 31.2568Z" fill="#9CA1E4"/>
<g id="Group_2">
<path id="Vector_2" d="M9.91555 27.3477C10.0883 28.7297 10.04 30.3528 9.73342 31.9699C9.53191 33.0326 9.21893 34.0926 8.78372 35.0798C8.17928 36.4509 9.18643 37.9897 10.6848 38.0001C12.2722 38.0111 13.9303 37.7162 15.4277 37.1027C17.1272 36.4064 18.6197 35.2996 19.5673 33.7638L9.91555 27.3477Z" fill="#EEECFF"/>
<path id="Vector_3" d="M33.8282 15.8269C32.4204 13.4604 30.1652 11.5852 27.3017 10.463C25.3906 9.71418 23.2086 9.30078 20.8268 9.30078C19.9072 9.30078 19.0178 9.36305 18.1618 9.4818C9.31786 16.823 11.7103 34.4595 31.7391 30.5279C32.9741 29.3649 33.9364 27.9856 34.5733 26.4469C35.1547 25.0427 35.4652 23.5059 35.4652 21.88C35.4653 19.6593 34.8858 17.6045 33.8282 15.8269Z" fill="#EEECFF"/>
<path id="Vector_4" d="M14.4389 33.331C16.3291 34.0586 18.4811 34.4596 20.8269 34.4596C23.1728 34.4596 25.3247 34.0586 27.2149 33.331C28.9657 32.6572 30.4916 31.703 31.7392 30.528C11.753 30.886 15.1945 16.4062 18.162 9.48193C16.801 9.67075 15.5253 10.0034 14.3521 10.4631C11.4886 11.5852 9.23337 13.4605 7.82552 15.827C6.76798 17.6046 6.18848 19.6594 6.18848 21.8802C6.18848 23.5061 6.49901 25.0429 7.08036 26.4472C8.36101 29.5403 10.9555 31.9902 14.4389 33.331Z" fill="#D3D3FF"/>
</g>
<g id="Group_3">
<g id="Group_4">
<path id="Vector_5" d="M14.744 24.3964C15.9835 24.3964 16.9884 23.5962 16.9884 22.6091C16.9884 21.622 15.9835 20.8218 14.744 20.8218C13.5044 20.8218 12.4995 21.622 12.4995 22.6091C12.4995 23.5962 13.5044 24.3964 14.744 24.3964Z" fill="#FFA1AC"/>
<path id="Vector_6" d="M26.9095 24.3964C28.1491 24.3964 29.1539 23.5962 29.1539 22.6091C29.1539 21.622 28.1491 20.8218 26.9095 20.8218C25.6699 20.8218 24.665 21.622 24.665 22.6091C24.665 23.5962 25.6699 24.3964 26.9095 24.3964Z" fill="#FFA1AC"/>
</g>
<g id="Group_5">
<path id="Vector_7" d="M25.6016 21.4453C25.2941 21.4453 25.0449 21.1962 25.0449 20.8887V19.9712C25.0449 19.6637 25.2941 19.4146 25.6016 19.4146C25.909 19.4146 26.1582 19.6637 26.1582 19.9712V20.8887C26.1582 21.1962 25.909 21.4453 25.6016 21.4453Z" fill="#425460"/>
<path id="Vector_8" d="M17.3869 18.6905C17.2286 18.4271 16.8867 18.3418 16.6231 18.5C16.2797 18.7064 15.8245 18.7064 15.4811 18.5C15.2176 18.3416 14.8756 18.427 14.7173 18.6905C14.559 18.954 14.6442 19.2959 14.9077 19.4543C15.1099 19.5758 15.3298 19.6627 15.5584 19.7146C15.5184 19.7914 15.4955 19.8786 15.4955 19.9712V20.8887C15.4955 21.1962 15.7447 21.4453 16.0521 21.4453C16.3595 21.4453 16.6087 21.1962 16.6087 20.8887V19.9712C16.6087 19.8786 16.5858 19.7914 16.5457 19.7146C16.7743 19.6626 16.9942 19.5758 17.1965 19.4543C17.46 19.2959 17.5452 18.954 17.3869 18.6905Z" fill="#425460"/>
<path id="Vector_9" d="M22.0854 21.9917C22.0152 21.9917 21.9439 21.9783 21.875 21.9502C21.1498 21.6538 20.0477 21.6522 19.5771 21.6538H19.5679C19.2605 21.6538 19.0112 21.4047 19.0112 21.0972C19.0112 20.7897 19.2605 20.5405 19.5679 20.5405H19.5771H19.5876C20.1731 20.5405 21.3741 20.5428 22.2962 20.9196C22.5807 21.0359 22.7171 21.3609 22.6007 21.6455C22.5127 21.8612 22.3048 21.9917 22.0854 21.9917Z" fill="#425460"/>
</g>
</g>
<path id="Vector_10" d="M26.86 12.8526C27.9897 11.4938 28.6692 9.74752 28.6692 7.84232C28.6692 3.51114 25.1581 0 20.8268 0C20.6357 0 20.4463 0.00719922 20.2587 0.0206328C13.5205 3.33732 15.3886 14.9578 26.86 12.8526Z" fill="#59D5FF"/>
<path id="Vector_11" d="M26.8598 12.8525C16.378 12.9571 17.5936 3.01457 20.2586 0.0205078C16.1926 0.311668 12.9844 3.70213 12.9844 7.8422C12.9844 12.1734 16.4955 15.6845 20.8267 15.6845C23.2527 15.6846 25.4212 14.5827 26.8598 12.8525Z" fill="#00C4FC"/>
<path id="Vector_12" d="M32.032 32.5228C30.8361 33.1343 29.391 32.8926 27.9401 32.2526C26.5931 31.6585 25.3428 30.8814 24.3247 30.0055C23.3961 29.2065 23.291 27.8061 24.0899 26.8775C24.8888 25.9489 26.2892 25.8437 27.218 26.6427C27.8992 27.2288 28.7915 27.7796 29.7303 28.1937C30.7368 28.6377 32.1366 28.9784 33.0677 29.0565C33.5488 29.9992 33.5488 31.7472 32.032 32.5228Z" fill="#9CA1E4"/>
<g id="Group_6">
<g id="Group_7">
<g id="Group_8">
<path id="Vector_13" d="M20.8269 10.7284C20.5194 10.7284 20.2702 10.4792 20.2702 10.1717V7.82529C20.2702 7.5178 20.5194 7.26865 20.8269 7.26865C21.2938 7.26865 21.7283 7.08184 22.0504 6.74266C22.3722 6.4037 22.5361 5.95906 22.5119 5.49081C22.4663 4.61332 21.7415 3.9121 20.862 3.89436C20.007 3.87574 19.2738 4.50088 19.156 5.34534C19.1451 5.42275 19.1396 5.50209 19.1396 5.58136C19.1396 5.88884 18.8904 6.138 18.583 6.138C18.2756 6.138 18.0264 5.88884 18.0264 5.58136C18.0264 5.45081 18.0355 5.31966 18.0534 5.19141C18.2491 3.7889 19.4645 2.75177 20.8845 2.78138C22.3448 2.8107 23.5479 3.97556 23.6236 5.43314C23.6639 6.20932 23.3919 6.94668 22.8579 7.50926C22.4608 7.92749 21.9422 8.21115 21.3836 8.32545V10.1718C21.3835 10.4791 21.1343 10.7284 20.8269 10.7284Z" fill="#EEECFF"/>
</g>
</g>
<path id="Vector_14" d="M20.27 12.6098C20.27 12.3356 20.4702 12.1107 20.7183 12.0643C21.0023 12.0059 21.3051 12.1827 21.3729 12.5007C21.4324 12.8235 21.2163 13.1028 20.9358 13.1553C20.5924 13.2252 20.27 12.9603 20.27 12.6098Z" fill="#EEECFF"/>
</g>
</g>
</g>
<defs>
<clipPath id="clip0_642_334">
<rect width="38" height="38" fill="white"/>
</clipPath>
</defs>
</svg>
