<svg width="70" height="70" viewBox="0 0 70 70" fill="none" xmlns="http://www.w3.org/2000/svg">
<g id="dragon-boat-festival 1" clip-path="url(#clip0_1163_351)">
<g id="Group">
<path id="Vector" d="M49.8494 28.6322C49.2659 28.6322 48.793 28.1592 48.793 27.5758V18.0308C48.793 17.4474 49.2659 16.9744 49.8494 16.9744C50.4329 16.9744 50.9058 17.4474 50.9058 18.0308V27.5758C50.9058 28.1592 50.4329 28.6322 49.8494 28.6322Z" fill="#7C88AD"/>
<path id="Vector_2" d="M38.5161 39.0748L38.4584 39.1045C37.8485 39.4087 37.1174 39.1918 36.7498 38.6185C35.9427 37.362 33.5651 35.5097 26.5574 35.5097C24.0769 35.5097 22.2937 35.0463 21.0147 34.3335C16.8285 32.0052 18.0736 27.0246 18.0736 27.0246L21.2555 23.8427C27.7912 22.6891 31.9578 24.323 34.6129 26.8754C38.2935 30.4108 39.0737 35.7099 39.24 37.7988C39.2824 38.3312 38.9935 38.8368 38.5161 39.0748Z" fill="#F5EA72"/>
<path id="Vector_3" d="M33.087 28.9922C31.8306 28.7063 30.1615 28.4838 28.5346 28.7542C27.695 28.8936 26.9782 29.4247 26.5654 30.1698C25.4174 32.2292 23.4158 33.7813 21.0142 34.3335C16.828 32.0052 18.0731 27.0246 18.0731 27.0246L21.255 23.8427C27.7907 22.6891 31.9573 24.323 34.6124 26.8754C34.6546 27.0093 34.6926 27.1416 34.7279 27.2698C35.0056 28.2781 34.1068 29.2261 33.087 28.9922Z" fill="#EDE144"/>
<path id="Vector_4" d="M49.8494 50.9043C49.2659 50.9043 48.793 50.4312 48.793 49.8479V37.1211C48.793 36.5377 49.2659 36.0647 49.8494 36.0647C50.4329 36.0647 50.9058 36.5377 50.9058 37.1211V49.8479C50.9058 50.4312 50.4329 50.9043 49.8494 50.9043Z" fill="#7C88AD"/>
<path id="Vector_5" d="M40.3794 35H59.4697V39.2427H40.3794V35Z" fill="#F9F29D"/>
<path id="Vector_6" d="M42.4255 47.7267H36.062V20.1521L42.4255 18.031V47.7267Z" fill="#6171A3"/>
<path id="Vector_7" d="M63.6369 47.7267H57.2734V18.031L63.6369 20.1521V47.7267Z" fill="#7C88AD"/>
<path id="Vector_8" d="M70.0002 7.58218C70.0002 8.61044 69.3072 9.49774 68.3169 9.77952C65.197 10.6683 63.6362 13.7883 63.6362 13.7883L49.8492 15.1969L45.7066 14.7743L36.0622 13.7883C36.0622 13.7883 34.5016 10.6683 31.3815 9.77952C30.3928 9.49774 29.6982 8.61044 29.6982 7.58218C29.6982 6.32437 30.718 5.30444 31.9758 5.30444H67.7223C68.3505 5.30444 68.9211 5.55942 69.3323 5.97204C69.7452 6.38356 70.0002 6.95259 70.0002 7.58218Z" fill="#FF6E80"/>
<path id="Vector_9" d="M45.9221 13.9871L45.7066 14.7745L36.0622 13.7885C36.0622 13.7885 34.5016 10.6686 31.3815 9.77977C30.3928 9.49799 29.6982 8.61068 29.6982 7.58242C29.6982 6.32461 30.718 5.30469 31.9758 5.30469H40.7737C40.5708 5.41734 40.3864 5.56104 40.2257 5.73152C39.813 6.16684 39.5581 6.76963 39.5581 7.43313C39.5581 8.51908 40.2525 9.45574 41.2414 9.75297C44.3615 10.691 45.9221 13.9871 45.9221 13.9871Z" fill="#F9475E"/>
<path id="Vector_10" d="M63.6363 13.7883V20.1522H45.8194L41.5684 18.9929V14.9898L45.8194 13.7883H63.6363Z" fill="#F9F29D"/>
<path id="Vector_11" d="M36.0625 13.7883H45.8196V20.1522H36.0625V13.7883Z" fill="#F5EA72"/>
<path id="Vector_12" d="M25.8122 64.6951H14.1466C11.2929 64.6951 8.57994 63.8373 6.30658 62.3217C4.03172 60.8046 2.19641 58.6298 1.0991 55.9972C0.803242 55.2858 0.566719 54.5577 0.390625 53.8167L13.262 57.0621L25.8122 64.6951Z" fill="#F5EA72"/>
<path id="Vector_13" d="M13.2618 57.0621L12.9279 57.2016C4.98362 60.2144 1.47213 55.7225 0.390279 53.8167V53.8153C-0.3506 50.7207 -0.040795 47.4416 1.3551 44.5399C1.37055 44.5075 1.38614 44.4765 1.40159 44.4456C1.40159 44.4456 11.6715 50.908 11.6686 50.908H11.6715L13.6963 54.1172L13.2618 57.0621Z" fill="#EDE144"/>
<path id="Vector_14" d="M14.5592 47.0565L11.6713 50.9081H11.6684C4.42832 50.9081 2.1324 46.9544 1.40137 44.4457V44.4443C2.62541 41.937 4.32551 39.9228 6.13279 38.3228L13.6531 43.3429L14.5592 47.0565Z" fill="#F5EA72"/>
<path id="Vector_15" d="M23.6262 34.4364L21.4466 39.756L13.6537 43.3428C9.16887 42.747 7.09402 40.382 6.1333 38.3226V38.3213C7.97846 36.6845 9.93641 35.4801 11.6112 34.6266C14.2579 33.2785 15.9116 30.5474 15.9116 27.5767H22.2754C22.2753 30.0051 22.7557 32.3207 23.6262 34.4364Z" fill="#EDE144"/>
<path id="Vector_16" d="M70.0003 43.1132V56.2438C70.0003 60.9118 66.2169 64.6953 61.5489 64.6953H25.8122L13.6958 50.497L18.8568 37.4368C20.3767 36.2409 21.919 35.3184 23.2769 34.6267C23.3953 34.5661 23.5121 34.5042 23.6262 34.4365C24.2784 36.0211 25.1504 37.4916 26.2039 38.8115C26.6265 39.3412 27.0773 39.8468 27.5562 40.3257C30.8185 43.5879 35.3258 45.6064 40.3051 45.6064H48.9284C54.3133 45.6064 59.5221 43.6795 63.6098 40.175C63.9604 39.8736 64.3591 39.6411 64.786 39.4834C65.2128 39.3256 65.6677 39.2425 66.1298 39.2425C67.1989 39.2425 68.1666 39.6763 68.8666 40.3763C69.5678 41.0765 70.0003 42.0441 70.0003 43.1132Z" fill="#7FD49D"/>
<path id="Vector_17" d="M34.3143 64.6951H25.8122C22.9584 64.6951 20.2455 63.8374 17.9722 62.3217C15.6973 60.8047 13.862 58.6299 12.7647 55.9972C11.2293 52.3124 11.2913 48.136 13.021 44.5399C15.4861 39.4169 19.9413 36.3266 23.2767 34.6265C23.3951 34.5659 23.5119 34.504 23.626 34.4363C24.2782 36.0208 25.1502 37.4914 26.2037 38.8113C23.5558 45.5274 22.0964 56.3367 34.3143 64.6951Z" fill="#5EC783"/>
<path id="Vector_18" d="M29.5436 41.1652C29.514 41.6991 29.1605 42.1597 28.6548 42.3329L28.5942 42.354C27.949 42.5737 27.2533 42.2596 26.9659 41.6413C26.3363 40.2876 24.229 38.1325 17.2862 37.1889C14.8099 36.8523 13.0958 36.1438 11.9252 35.2577L11.9815 34.9013L11.3448 34.7632C8.33042 31.8728 10.0207 27.6402 10.0207 27.6402L13.6012 24.9145C18.9341 24.7033 22.5075 26.0709 24.8923 28.1162V28.1177L25.7205 29.6629L26.6587 30.0151C29.6041 33.9787 29.6591 39.1241 29.5436 41.1652Z" fill="#F9F29D"/>
<path id="Vector_19" d="M26.6587 30.0151C26.6263 30.0658 26.5953 30.1179 26.5658 30.17C25.2403 32.5463 22.7781 34.2478 19.8779 34.5182L17.7101 34.7196L11.9251 35.2577C8.12623 32.3842 10.0207 27.6402 10.0207 27.6402L13.6013 24.9145C20.4583 24.6429 24.4051 26.9825 26.6587 30.0151Z" fill="#F5EA72"/>
<path id="Vector_20" d="M30.7153 26.3667C29.6927 26.1343 28.3348 25.9526 27.0108 26.1723C26.3276 26.2865 25.7445 26.7188 25.4079 27.3245C24.3303 29.2583 22.326 30.643 19.9667 30.8627L18.2031 31.0261L12.2758 30.4289L9.69811 31.8121C8.04737 31.891 6.54442 31.0699 5.68938 29.7669V28.4542L4.96395 27.6977C2.46651 27.9301 0.255087 26.0948 0.0226647 23.5974C0.0141881 23.5086 0.00994984 23.4199 0.00571156 23.3297C-0.0760463 21.0126 1.65372 18.9759 3.95251 18.6758C5.77934 18.4377 7.47397 19.3194 8.3796 20.7464C8.84444 21.476 9.57972 21.9901 10.4361 22.1267C10.46 22.1323 10.4853 22.1365 10.5094 22.1408C11.7306 22.3296 12.928 21.7365 13.5462 20.666C14.1293 19.6547 14.966 18.811 15.9675 18.215C14.973 12.3357 18.8127 9.99891 21.2524 9.12132C22.0538 8.8312 22.8792 9.50016 22.7553 10.3425C22.7131 10.6228 22.6778 10.9285 22.6539 11.251C22.5975 12.0131 22.9285 12.6947 23.4665 13.137C23.9201 13.5103 24.5216 13.7118 25.1624 13.6441C27.1231 13.4385 28.9022 14.1159 30.1106 14.7723C30.86 15.178 30.9107 16.2386 30.1994 16.7062C30.0149 16.8273 29.8232 16.9598 29.6261 17.1049C28.4626 17.9655 28.3766 19.7051 29.4754 20.6474C30.9545 21.9165 31.6882 23.649 32.0503 24.9647C32.276 25.785 31.545 26.5569 30.7153 26.3667Z" fill="#7FD49D"/>
<path id="Vector_21" d="M18.203 31.0264L9.90661 31.7983C8.17548 31.9588 6.58093 31.1249 5.68938 29.7672V28.4544L4.96395 27.6979C2.46651 27.9304 0.255087 26.0951 0.0226647 23.5976C0.0141881 23.5089 0.00994984 23.4202 0.00571156 23.3299C-0.0760463 21.0128 1.65372 18.9761 3.95251 18.676C5.77934 18.438 7.47397 19.3197 8.3796 20.7466C8.84444 21.4763 9.57972 21.9903 10.4361 22.1269C10.46 22.1325 10.4853 22.1368 10.5094 22.141C11.7306 22.3298 12.928 21.7367 13.5462 20.6662C14.1293 19.6549 14.966 18.8112 15.9675 18.2153C14.973 12.336 18.8127 9.99916 21.2524 9.12156C22.0538 8.83144 22.8792 9.50041 22.7553 10.3427C22.7131 10.623 22.6778 10.9287 22.6539 11.2512C22.5975 12.0133 22.9285 12.695 23.4665 13.1373C20.534 14.7786 13.4546 20.0678 18.203 31.0264Z" fill="#5EC783"/>
<path id="Vector_22" d="M8.55438 29.5008L5.6893 29.767C5.2935 29.167 5.03578 28.4627 4.96387 27.6978L8.35846 27.3978C8.94156 27.3429 9.45426 27.7711 9.50785 28.3514C9.56281 28.9332 9.13461 29.4472 8.55438 29.5008Z" fill="#3CB767"/>
<path id="Vector_23" d="M15.9112 22.2731C17.6684 22.2731 19.0929 20.8486 19.0929 19.0914C19.0929 17.3342 17.6684 15.9097 15.9112 15.9097C14.154 15.9097 12.7295 17.3342 12.7295 19.0914C12.7295 20.8486 14.154 22.2731 15.9112 22.2731Z" fill="#3CB767"/>
<path id="Vector_24" d="M49.8492 30.7577C51.6064 30.7577 53.0309 29.3332 53.0309 27.576C53.0309 25.8188 51.6064 24.3943 49.8492 24.3943C48.092 24.3943 46.6675 25.8188 46.6675 27.576C46.6675 29.3332 48.092 30.7577 49.8492 30.7577Z" fill="#F9F29D"/>
</g>
</g>
<defs>
<clipPath id="clip0_1163_351">
<rect width="70" height="70" fill="white"/>
</clipPath>
</defs>
</svg>
