<svg width="70" height="70" viewBox="0 0 70 70" fill="none" xmlns="http://www.w3.org/2000/svg">
<g id="history" clip-path="url(#clip0_1163_142)">
<g id="Group">
<path id="Vector" d="M52.8651 57.273C50.4902 56.9984 48.1096 56.78 45.7277 56.6153C44.9546 56.5644 44.745 56.1158 43.7063 54.8531C43.0752 54.0897 41.8398 54.215 41.3892 55.0926C41.115 55.6245 40.9103 56.191 40.0948 56.3097C39.8257 56.3491 38.8523 56.2928 37.021 56.2632C10.5278 35.255 34.4278 13.7483 34.4278 13.7483C40.4863 13.7738 46.663 13.4413 52.8652 12.7271C68.5585 23.9268 65.83 43.6178 52.8651 57.273Z" fill="#F8D787"/>
<path id="Vector_2" d="M37.0211 56.2631C35.4083 56.2377 33.1292 56.232 30.0795 56.3308C25.8001 56.466 21.5264 56.7815 17.2668 57.2732C15.8567 56.1828 6.75982 48.9004 6.14992 36.3482C5.4625 22.2 16.1525 13.5934 17.2668 12.7271C19.3769 12.9708 21.4926 13.1708 23.6112 13.3286C24.1662 13.368 24.6437 13.7271 24.8212 14.2413L25.1381 15.1668C25.4212 15.9922 26.4242 16.343 27.1834 15.8809C27.1834 15.8809 29.8739 14.2497 29.9372 14.2159C30.4092 14.0778 31.1134 13.7032 32.0178 13.72C32.8192 13.7355 33.6222 13.7455 34.4279 13.7482C30.5909 23.4071 26.4242 40.7626 37.0211 56.2631Z" fill="#F4C856"/>
<path id="Vector_3" d="M9.54521 12.7271C13.0597 12.7271 15.9088 9.87808 15.9088 6.36357C15.9088 2.84907 13.0597 0 9.54521 0C6.03071 0 3.18164 2.84907 3.18164 6.36357C3.18164 9.87808 6.03071 12.7271 9.54521 12.7271Z" fill="#DD6642"/>
<path id="Vector_4" d="M9.54521 70.0001C13.0597 70.0001 15.9088 67.151 15.9088 63.6365C15.9088 60.122 13.0597 57.2729 9.54521 57.2729C6.03071 57.2729 3.18164 60.122 3.18164 63.6365C3.18164 67.151 6.03071 70.0001 9.54521 70.0001Z" fill="#DD6642"/>
<path id="Vector_5" d="M16.9922 35C16.9922 41.7529 17.6922 48.5073 19.091 55.1517C19.091 58.4188 17.0144 61.254 13.9692 62.6711C13.4386 62.918 12.8089 62.6693 12.5911 62.126C12.2963 61.3907 11.312 61.2581 10.8332 61.8893L9.8257 63.2172C9.62254 63.4851 9.29988 63.6382 8.9641 63.6203C3.96348 63.3529 0 59.6643 0 55.1517C1.39877 48.5073 2.09754 41.7529 2.09754 35C2.09754 28.247 1.39891 21.4927 0.000136719 14.8483C0.000136719 12.5044 1.06928 10.3845 2.79617 8.84912C4.5232 7.31363 6.90936 6.36426 9.54488 6.36426C9.73082 6.36426 9.91402 6.3685 10.0971 6.37834C10.6507 6.4065 11.117 6.80094 11.2253 7.3433C11.4071 8.25385 12.5382 8.67439 13.2903 7.92217C13.6706 7.54182 14.2594 7.45459 14.7257 7.72215C17.3528 9.23221 19.091 11.8606 19.091 14.8483C17.6924 21.4927 16.9922 28.247 16.9922 35Z" fill="#F8D787"/>
<path id="Vector_6" d="M60.4544 12.7271C63.9689 12.7271 66.818 9.87808 66.818 6.36357C66.818 2.84907 63.9689 0 60.4544 0C56.9399 0 54.0908 2.84907 54.0908 6.36357C54.0908 9.87808 56.9399 12.7271 60.4544 12.7271Z" fill="#E7896E"/>
<path id="Vector_7" d="M60.4544 70.0001C63.9689 70.0001 66.818 67.151 66.818 63.6365C66.818 60.122 63.9689 57.2729 60.4544 57.2729C56.9399 57.2729 54.0908 60.122 54.0908 63.6365C54.0908 67.151 56.9399 70.0001 60.4544 70.0001Z" fill="#E7896E"/>
<path id="Vector_8" d="M53.0079 34.9999C53.0079 41.7528 52.3079 48.5072 50.9092 55.1516C50.9092 58.4187 52.9858 61.2539 56.0309 62.671C56.5615 62.9179 57.1913 62.6692 57.4091 62.1259C57.7038 61.3906 58.6882 61.258 59.167 61.8892L60.1745 63.2171C60.3776 63.485 60.7003 63.6381 61.0361 63.6202C66.0367 63.3528 70.0002 59.6642 70.0002 55.1516C68.6014 48.5072 67.9028 41.7527 67.9028 34.9999C67.9028 28.2471 68.6014 21.4926 70.0002 14.8482C70.0002 12.5043 68.931 10.3844 67.2041 8.84902C65.2221 7.08685 62.5408 6.2366 59.9032 6.37824C59.3496 6.4064 58.8833 6.80083 58.775 7.3432C58.5945 8.24732 57.4669 8.67908 56.71 7.92206C56.3297 7.54171 55.741 7.45449 55.2746 7.72204C52.6476 9.2321 50.9093 11.8605 50.9093 14.8482C52.3078 21.4926 53.0079 28.2469 53.0079 34.9999Z" fill="#FDEFCD"/>
<path id="Vector_9" d="M39.2382 24.3825C39.2369 21.7753 37.3481 21.5312 35.0181 21.5325C32.6882 21.5337 30.7996 21.7795 30.8008 24.3868C30.8021 26.994 32.692 29.1066 35.0218 29.1053C37.3518 29.1042 39.2395 26.9897 39.2382 24.3825Z" fill="#495560"/>
<g id="Group_2">
<path id="Vector_10" d="M23.8142 23.2667C23.231 23.2667 22.7581 22.7941 22.7578 22.2109C22.7574 21.3815 23.0799 20.6017 23.6662 20.0149C25.6035 18.0758 28.9661 19.4329 28.9679 22.2076C28.9683 22.7911 28.4955 23.2643 27.9121 23.2647C27.3286 23.2651 26.8554 22.7925 26.855 22.2089C26.8546 21.3331 25.785 20.8833 25.1611 21.5083C24.9738 21.6957 24.8707 21.9449 24.8708 22.2098C24.8711 22.7933 24.3983 23.2665 23.8149 23.2667C23.8147 23.2667 23.8144 23.2667 23.8142 23.2667Z" fill="#495560"/>
</g>
<g id="Group_3">
<path id="Vector_11" d="M44.1727 19.095H44.1742C45.8859 19.095 47.2785 20.4868 47.2793 22.1985C47.2796 22.782 46.8068 23.2552 46.2234 23.2555H46.2229C45.6396 23.2555 45.1667 22.7828 45.1665 22.1996C45.1662 21.6527 44.7212 21.208 44.1743 21.208C43.6271 21.208 43.1821 21.6533 43.1824 22.2004C43.1827 22.7839 42.7099 23.2571 42.1265 23.2574C40.0857 23.2585 41.1018 19.0965 44.1727 19.095Z" fill="#495560"/>
</g>
<path id="Vector_12" d="M48.1495 37.7046C46.0662 39.7725 43.156 39.7725 41.0741 37.7046C40.3035 36.9397 39.3077 36.9397 38.5386 37.7046C36.4553 39.7725 33.5451 39.7725 31.4616 37.7046C31.1391 37.3835 30.7771 37.1975 30.408 37.1468C27.8781 34.807 30.3107 32.9069 30.3107 32.9069C31.5193 32.9378 32.7223 33.4549 33.7323 34.4577C34.5013 35.2226 35.4987 35.2226 36.2677 34.4577C38.351 32.3885 41.2612 32.3885 43.3447 34.4577C44.1137 35.2226 45.1096 35.2226 45.8801 34.4577C46.6309 33.7112 47.7494 33.8323 48.3776 34.7281C49.0046 35.6254 48.9018 36.9566 48.1495 37.7046Z" fill="#FDEFCD"/>
<path id="Vector_13" d="M30.4079 37.1469C29.8966 37.0736 29.374 37.2609 28.926 37.7047C28.0709 38.5555 27.0737 39.0555 26.0524 39.2063C24.5904 39.4232 23.0774 38.9218 21.8505 37.7047C21.0983 36.9567 20.9968 35.6255 21.6223 34.7282C22.2506 33.8323 23.3691 33.7111 24.1198 34.4578C24.7889 35.1212 25.627 35.21 26.3383 34.7197V34.7226C26.6482 34.4649 26.6496 34.4634 26.6552 34.4578C27.7301 33.3915 29.0246 32.8745 30.3107 32.907C30.2755 34.2986 30.3051 35.7142 30.4079 37.1469Z" fill="#FAE19E"/>
<path id="Vector_14" d="M48.1494 48.2847C46.066 50.3526 43.1558 50.3526 41.0739 48.2847C40.3033 47.5198 39.3075 47.5198 38.5384 48.2847C37.0284 49.7836 35.0845 50.1962 33.3351 49.5215C29.8092 47.0156 31.408 43.6504 31.408 43.6504C32.2349 43.8772 33.0307 44.3392 33.7322 45.0378C34.5013 45.8014 35.4986 45.8014 36.2677 45.0378C38.351 42.9672 41.2612 42.9672 43.3447 45.0378C44.1137 45.8014 45.1096 45.8028 45.8801 45.0378C46.6308 44.2913 47.7493 44.4125 48.3775 45.3084C49.0044 46.2055 48.9016 47.5368 48.1494 48.2847Z" fill="#FDEFCD"/>
<path id="Vector_15" d="M33.3349 49.5214C32.6714 49.2664 32.0347 48.8538 31.4614 48.2847C30.6924 47.5197 29.6965 47.5197 28.926 48.2847C28.0709 49.1355 27.0737 49.6355 26.0524 49.7863C24.5904 50.0032 23.0774 49.5017 21.8505 48.2847C21.0983 47.5367 20.9968 46.2055 21.6223 45.3083C22.2506 44.4124 23.369 44.2913 24.1198 45.0377C24.7889 45.7012 25.627 45.79 26.3383 45.2998V45.3012C26.6482 45.0448 26.6496 45.042 26.6552 45.0377C28.037 43.6658 29.7824 43.2023 31.408 43.6503C31.8769 45.604 32.5094 47.5662 33.3349 49.5214Z" fill="#FAE19E"/>
</g>
</g>
<defs>
<clipPath id="clip0_1163_142">
<rect width="70" height="70" fill="white"/>
</clipPath>
</defs>
</svg>
