<svg width="38" height="38" viewBox="0 0 38 38" fill="none" xmlns="http://www.w3.org/2000/svg">
<g id="microscope 1" clip-path="url(#clip0_642_292)">
<g id="Group">
<g id="Group_2">
<path id="Vector" d="M31.5513 24.7578H17.1073C16.5723 25.8459 16.5641 27.0215 18.0345 28.2123H30.515C31.7548 28.2123 32.7605 27.2059 32.7605 25.9669C32.7604 25.299 32.2192 24.7578 31.5513 24.7578Z" fill="#EFEDFF"/>
<path id="Vector_2" d="M17.1073 24.7578H14.823C13.9204 25.8197 13.9716 27.7262 16.1142 28.2123H18.0346C17.9898 26.9842 17.6735 25.8173 17.1073 24.7578Z" fill="#D4D4FF"/>
<path id="Vector_3" d="M17.1648 6.59229C11.374 7.77838 7.00488 12.9119 7.00488 19.0476V21.1507L8.14436 21.4043C9.41632 21.6873 10.735 21.6873 12.0069 21.4043L13.1463 21.1507V19.0475C13.1463 16.3616 14.7664 14.0483 17.0807 13.0296L17.5109 11.5573C17.8324 10.4575 17.8526 9.29162 17.5697 8.18131L17.1648 6.59229Z" fill="#D4D4FF"/>
<path id="Vector_4" d="M19.6409 7.50411L19.2359 6.34229C18.5294 6.36893 17.8379 6.45421 17.1651 6.59203C17.1101 6.88416 17.0811 7.18207 17.0811 7.48466V13.0295C17.6799 12.766 18.3244 12.5877 19.0003 12.5137L19.3044 11.9394C20.0282 10.572 20.1502 8.96503 19.6409 7.50411Z" fill="#B9BBFF"/>
<path id="Vector_5" d="M7.00488 21.1506V23.2918C8.96841 24.6789 11.012 24.738 13.1463 23.2918V21.1506C11.1827 20.3303 8.96968 20.3298 7.00488 21.1506Z" fill="#B9BBFF"/>
<path id="Vector_6" d="M25.909 4.60632V1.66993C25.909 0.834527 25.2952 0.142215 24.494 0.0195312C23.0983 0.919508 22.3883 2.34792 23.0017 4.60625C23.2861 5.80258 25.3716 6.00728 25.909 4.60632Z" fill="#7E88D1"/>
<path id="Vector_7" d="M24.4943 0.0192969C24.4112 0.00660547 24.3262 0 24.2396 0H22.9729C22.0508 0 21.3032 0.747531 21.3032 1.6697V4.60609L21.3836 4.75772C21.6808 5.31829 22.465 5.36795 22.8305 4.8493L23.0019 4.60609C23.2394 2.91249 23.7504 1.35189 24.4943 0.0192969Z" fill="#5F71B8"/>
<path id="Vector_8" d="M28.2123 11.4452V7.48475C28.2123 5.89491 26.9233 4.60596 25.3335 4.60596H23.002C21.1032 8.31007 20.7655 12.6617 24.4942 15.4501C25.2411 16.2472 26.104 16.4635 27.0608 16.2107C28.375 15.3329 28.3149 12.7994 28.2123 11.4452Z" fill="#60DAFD"/>
<path id="Vector_9" d="M23.0018 4.60596H21.8788C20.2941 4.60596 19 5.89016 19 7.48475C19 7.60929 18.9996 6.3688 19.0023 14.9903C19.0089 14.9894 19.0272 14.9987 19.0553 15.0168C20.7403 16.1059 22.8877 16.1747 24.6031 15.1339L24.8738 14.9696C23.2309 11.8608 22.5126 8.09565 23.0018 4.60596Z" fill="#00C8FB"/>
<path id="Vector_10" d="M16.1143 28.212C15.9527 24.7408 12.8792 22.0928 9.3787 22.495C7.00511 24.6296 6.56366 29.2612 10.3968 31.0908C12.386 32.56 14.3043 32.7436 16.1213 31.0908C16.119 28.3876 16.1264 28.4619 16.1143 28.212Z" fill="#00C8FB"/>
<path id="Vector_11" d="M9.37862 22.4951C6.36779 22.8411 4.03027 25.3974 4.03027 28.5V31.0909C5.9751 33.4232 8.12759 33.0239 10.3968 31.0909C9.13118 28.2275 8.82755 25.2016 9.37862 22.4951Z" fill="#10ACFB"/>
<path id="Vector_12" d="M10.7468 28.0808C11.6282 27.7154 12.0466 26.7047 11.6812 25.8232C11.3159 24.9417 10.3051 24.5234 9.42366 24.8887C8.5422 25.2541 8.12382 26.2649 8.48919 27.1463C8.85456 28.0278 9.86531 28.4461 10.7468 28.0808Z" fill="#5F71B8"/>
<path id="Vector_13" d="M26.5141 14.9697C22.5341 14.9766 22.7044 14.9904 22.4566 14.9904C20.6698 14.9904 20.3052 15.9613 20.3052 16.9848C20.3052 18.098 20.9001 19 22.7421 19H27.6372C28.634 17.1407 27.9358 15.7935 26.5141 14.9697Z" fill="#7E88D1"/>
<path id="Vector_14" d="M20.7271 16.9848C20.7271 15.8727 21.6291 14.9697 22.7423 14.9697H19.2881C18.176 14.9697 17.2729 15.8717 17.2729 16.9848C17.2729 18.098 18.175 19 19.2881 19H22.7423C21.6291 19 20.7271 18.098 20.7271 16.9848Z" fill="#5F71B8"/>
<path id="Vector_15" d="M38 36.0423C38 33.3071 35.7831 31.0908 33.0485 31.0908C30.4585 31.0908 11.812 31.0908 8.40714 31.0908C5.18182 31.0908 4.59326 32.2247 4.59326 33.6241V35.4665C4.59326 36.866 5.15621 37.9998 8.40714 37.9998H36.0424C37.1233 37.9999 38 37.1232 38 36.0423Z" fill="#7E88D1"/>
<path id="Vector_16" d="M5.87382 35.4665V33.6241C5.87382 32.2247 7.00766 31.0908 8.40713 31.0908C7.62805 31.0908 3.08008 31.0908 2.53331 31.0908C1.13384 31.0907 0 32.2246 0 33.6241V35.4665C0 36.866 1.13384 37.9998 2.53331 37.9998H8.40713C7.00766 37.9998 5.87382 36.866 5.87382 35.4665Z" fill="#5F71B8"/>
<g id="Group_3">
<path id="Vector_17" d="M14.2056 35.3076C13.8876 35.3076 13.6299 35.0499 13.6299 34.7319V33.8107C13.6299 33.4926 13.8876 33.2349 14.2056 33.2349C14.5236 33.2349 14.7814 33.4926 14.7814 33.8107V34.7319C14.7814 35.05 14.5236 35.3076 14.2056 35.3076Z" fill="#425460"/>
<path id="Vector_18" d="M23.7941 35.3076C23.4761 35.3076 23.2183 35.0499 23.2183 34.7319V33.8107C23.2183 33.4926 23.476 33.2349 23.7941 33.2349C24.112 33.2349 24.3698 33.4926 24.3698 33.8107V34.7319C24.3698 35.05 24.112 35.3076 23.7941 35.3076Z" fill="#425460"/>
<path id="Vector_19" d="M17.3019 35.0825C17.0929 34.8428 17.1179 34.4791 17.3577 34.2702C17.5975 34.0613 17.9611 34.0862 18.17 34.3259C18.6087 34.8294 19.3892 34.8308 19.8291 34.3259C20.038 34.0862 20.4018 34.0612 20.6414 34.2702C20.8811 34.4791 20.9061 34.8428 20.6971 35.0825C19.8004 36.1115 18.2012 36.1145 17.3019 35.0825Z" fill="#425460"/>
</g>
<path id="Vector_20" d="M37.9999 15.5455C37.9999 12.4538 35.5622 9.93279 32.5046 9.79541C29.7712 13.6304 30.0133 17.7976 33.7401 21.1051C36.1934 20.4457 37.9999 18.207 37.9999 15.5455Z" fill="#FFE962"/>
<path id="Vector_21" d="M32.5049 9.7955C30.8383 9.72061 29.3176 10.3576 28.2122 11.4455C26.0797 13.5395 25.8998 16.8945 27.7915 19.1975L26.9378 20.1287C26.3667 20.752 26.8572 21.7523 27.7001 21.6817L32.2425 21.3033C32.7608 21.3033 33.2626 21.2336 33.7404 21.1052C31.93 17.7225 31.3851 13.5687 32.5049 9.7955Z" fill="#FFC73C"/>
<path id="Vector_22" d="M33.7967 18.2382C34.2343 17.9856 34.2835 17.3062 34.5368 16.8695C34.7816 16.4457 35.3513 16.0695 35.3513 15.5453C35.3513 15.021 34.7816 14.6448 34.536 14.221C34.2834 13.7843 34.2343 13.1049 33.7967 12.8523C33.3737 12.6074 32.7664 12.8968 32.2422 12.8968C32.149 12.8968 32.0531 12.8875 31.9562 12.8738C30.9941 14.7507 31.1438 16.5689 32.5596 18.2214C32.9986 18.2871 33.457 18.4349 33.7967 18.2382Z" fill="#EFEDFF"/>
<path id="Vector_23" d="M31.9564 12.8739C31.5079 12.8106 31.0356 12.651 30.6878 12.8524C30.2502 13.1049 30.2011 13.7843 29.9478 14.2211C29.7029 14.6449 29.1333 15.021 29.1333 15.5453C29.1333 16.0697 29.7029 16.4458 29.9486 16.8695C30.2012 17.3063 30.2503 17.9857 30.6879 18.2383C31.1109 18.4831 31.7181 18.1937 32.2424 18.1937C32.3456 18.1937 32.4522 18.2052 32.5598 18.2213C32.4952 18.0021 32.4348 17.7803 32.3792 17.556C31.9856 15.9695 31.8551 14.3891 31.9564 12.8739Z" fill="#D4D4FF"/>
</g>
</g>
</g>
<defs>
<clipPath id="clip0_642_292">
<rect width="38" height="38" fill="white"/>
</clipPath>
</defs>
</svg>
