<svg width="38" height="38" viewBox="0 0 38 38" fill="none" xmlns="http://www.w3.org/2000/svg">
<g id="qualified 1" clip-path="url(#clip0_642_319)">
<g id="Group">
<path id="Vector" d="M6.55056 36.5909L6.19476 33.9866C6.12032 33.4419 5.81572 32.9555 5.35831 32.6507L3.94964 31.7122C2.8305 30.9666 3.04915 29.2606 4.32081 28.8232C7.6303 27.6849 10.0876 26.1341 11.5793 23.5908L19 27.7667C16.9113 32.437 12.4195 35.9212 8.92697 37.8049C7.93044 38.3424 6.70383 37.7128 6.55056 36.5909Z" fill="#FF889E"/>
<path id="Vector_2" d="M11.5791 23.5908C10.4008 25.5998 8.61942 26.9892 6.29199 28.0455C8.35409 31.0442 12.1916 32.6517 16.0403 31.5451L16.8167 31.3218C17.6774 30.2308 18.4289 29.0434 18.9999 27.7667L11.5791 23.5908Z" fill="#FC5C6F"/>
<path id="Vector_3" d="M31.4495 36.5909L31.8053 33.9866C31.8797 33.4419 32.1843 32.9555 32.6417 32.6507L34.0504 31.7122C35.1695 30.9666 34.9509 29.2606 33.6792 28.8232C30.3697 27.6849 27.9124 26.1341 26.4207 23.5908L19 27.7667C21.0887 32.437 25.5805 35.9212 29.073 37.8049C30.0696 38.3424 31.2962 37.7128 31.4495 36.5909Z" fill="#FF889E"/>
<path id="Vector_4" d="M31.7071 28.0452C29.38 26.9889 27.5989 25.5996 26.4207 23.5908L19 27.7667C19.571 29.0434 20.3225 30.2308 21.1831 31.3218L21.9593 31.545C25.8162 32.6544 29.6476 31.0406 31.7071 28.0452Z" fill="#FC5C6F"/>
<path id="Vector_5" d="M17.7823 26.4209L14.8126 27.2748C12.0559 28.0675 9.28875 26.0571 9.19079 23.1904L9.08525 20.102C9.05697 19.2746 8.79616 18.4718 8.33267 17.7857L6.60278 15.2252C4.99705 12.8484 6.054 9.59548 8.75007 8.61646L11.6546 7.56174C12.4329 7.27911 13.1158 6.78296 13.625 6.13021L15.5257 3.69375C17.2899 1.43216 20.7103 1.43216 22.4745 3.69375L24.3752 6.13021C24.8845 6.78304 25.5674 7.27919 26.3456 7.56174L29.2501 8.61646C31.9462 9.59548 33.0031 12.8485 31.3974 15.2252L29.6676 17.7857C29.2041 18.4718 28.9433 19.2746 28.9149 20.102L28.8094 23.1904C28.7114 26.057 25.9443 28.0675 23.1876 27.2748L20.2179 26.4209C19.4221 26.1921 18.578 26.1921 17.7823 26.4209Z" fill="#F7E969"/>
<path id="Vector_6" d="M13.6162 6.14111C13.1079 6.78852 12.4285 7.28082 11.6546 7.56181L8.75007 8.61653C6.054 9.59555 4.99705 12.8486 6.60278 15.2253L8.33267 17.7858C8.79616 18.4719 9.05697 19.2746 9.08532 20.1021L9.19086 23.1904C9.28883 26.057 12.056 28.0676 14.8126 27.2749L17.7823 26.4209C18.578 26.1921 19.4221 26.1921 20.2178 26.4209L23.1875 27.2749C25.4625 27.9291 27.7431 26.6733 28.5262 24.6035C18.0397 22.9037 13.9437 14.2273 13.6162 6.14111Z" fill="#F8D071"/>
<path id="Vector_7" d="M18.2762 21.2664C18.1337 21.2664 17.9912 21.2121 17.8825 21.1034L16.435 19.6559C16.2176 19.4385 16.2176 19.0861 16.435 18.8687C16.6525 18.6514 17.0049 18.6514 17.2223 18.8687L18.2761 19.9226L20.7773 17.4213C20.9948 17.204 21.3472 17.204 21.5646 17.4213C21.782 17.6387 21.782 17.9911 21.5646 18.2086L18.6697 21.1035C18.5611 21.2121 18.4186 21.2664 18.2762 21.2664Z" fill="#005DAF"/>
<path id="Vector_8" d="M13.8407 8.65246C14.3519 8.29198 14.8105 7.85735 15.1997 7.35838L17.1004 4.92193C18.0652 3.68507 19.9353 3.68507 20.9 4.92193L22.8007 7.35831C23.5416 8.30816 24.5316 9.02756 25.6641 9.43881L28.5685 10.4935C30.0431 11.0288 30.6208 12.8073 29.7427 14.1072L28.0129 16.6676C27.3386 17.6657 26.9604 18.8296 26.9192 20.0337L26.8136 23.122C26.8005 23.5076 26.6987 23.8646 26.5307 24.1777C26.8877 25.7516 29.152 25.823 30.5543 24.8373C30.6995 24.337 30.7866 23.8087 30.8054 23.2583L30.9109 20.1702C30.9264 19.7171 31.0687 19.2792 31.3224 18.9036L33.0523 16.3431C35.3862 12.8884 33.8505 8.16224 29.9318 6.73925L27.0274 5.68467C26.6013 5.52993 26.2287 5.25925 25.95 4.90181L24.0493 2.46536C21.485 -0.821787 16.5156 -0.821787 13.9512 2.46536L13.6936 2.79556C12.8942 5.06398 12.7285 7.27355 13.8407 8.65246Z" fill="#4677D4"/>
<path id="Vector_9" d="M26.5307 24.1775C26.0159 25.1373 24.8764 25.6821 23.7396 25.3552L20.77 24.5014C19.6122 24.1684 18.3882 24.1684 17.2304 24.5014L14.2608 25.3552C12.7532 25.7887 11.2403 24.6896 11.1868 23.1218L11.0813 20.0334C11.0401 18.8295 10.6618 17.6655 9.98757 16.6675L8.25775 14.107C7.3796 12.8071 7.95724 11.0286 9.43175 10.4933L12.3364 9.43858C12.8739 9.24339 13.3788 8.97806 13.8407 8.65231C13.5652 6.67482 13.5287 4.68628 13.6936 2.79541L12.0506 4.90174C11.7717 5.2591 11.3992 5.52978 10.9733 5.68445L8.06864 6.7391C4.14997 8.16217 2.61431 12.8883 4.94819 16.3429L6.67801 18.9034C6.93176 19.279 7.07404 19.717 7.08955 20.1699L7.19509 23.2583C7.33752 27.4239 11.3565 30.3462 15.3646 29.1937L18.3343 28.3398H18.3344C18.7701 28.2144 19.2306 28.2146 19.6662 28.3398L22.6359 29.1937C26.1134 30.1938 29.6006 28.1252 30.5543 24.8371C29.1074 24.7341 27.7678 24.5093 26.5307 24.1775Z" fill="#005DAF"/>
<g id="Group_2">
<path id="Vector_10" d="M13.9849 14.3188C13.6774 14.3188 13.4282 14.0696 13.4282 13.7621V12.8447C13.4282 12.5372 13.6774 12.2881 13.9849 12.2881C14.2924 12.2881 14.5415 12.5372 14.5415 12.8447V13.7621C14.5415 14.0696 14.2923 14.3188 13.9849 14.3188Z" fill="#425460"/>
<path id="Vector_11" d="M19 14.9155C18.3323 14.9155 17.6974 14.6264 17.2581 14.1221C17.0561 13.8903 17.0803 13.5387 17.3121 13.3367C17.5438 13.1348 17.8955 13.1589 18.0974 13.3907C18.3253 13.6522 18.6543 13.8022 19 13.8022C19.3457 13.8022 19.6747 13.6522 19.9026 13.3907C20.1044 13.1588 20.4562 13.1347 20.6879 13.3367C20.9197 13.5387 20.9439 13.8903 20.7419 14.1221C20.3026 14.6263 19.6677 14.9155 19 14.9155Z" fill="#425460"/>
<path id="Vector_12" d="M25.2558 14.2932C24.9483 14.2932 24.6992 14.044 24.6992 13.7365C24.6992 13.4572 24.472 13.23 24.1927 13.23C23.9133 13.23 23.686 13.4572 23.686 13.7365C23.686 14.044 23.4369 14.2932 23.1294 14.2932C22.822 14.2932 22.5728 14.044 22.5728 13.7365C22.5728 12.8434 23.2994 12.1167 24.1927 12.1167C25.0858 12.1167 25.8125 12.8434 25.8125 13.7365C25.8125 14.044 25.5633 14.2932 25.2558 14.2932Z" fill="#425460"/>
</g>
</g>
</g>
<defs>
<clipPath id="clip0_642_319">
<rect width="38" height="38" fill="white"/>
</clipPath>
</defs>
</svg>
