<svg width="70" height="70" viewBox="0 0 70 70" fill="none" xmlns="http://www.w3.org/2000/svg">
<g id="sprout 1" clip-path="url(#clip0_1163_635)">
<path id="Vector" d="M44.4114 20.9859C40.2483 20.9859 36.4722 22.6739 33.731 25.4012C31.4114 20.4067 27.4864 16.2141 22.3981 13.5626C20.724 12.6903 18.6598 13.3401 17.7874 15.0143C16.9152 16.6882 17.565 18.7526 19.2391 19.6248C25.4206 22.846 29.2606 29.1728 29.2606 36.1365V59.9681C29.2606 61.8557 30.7909 63.386 32.6786 63.386C34.5662 63.386 36.0965 61.8557 36.0965 59.9681V36.1365C36.0965 31.5518 39.8265 27.8218 44.4112 27.8218C46.2989 27.8218 47.8292 26.2915 47.8292 24.4038C47.8292 22.5161 46.299 20.9859 44.4114 20.9859Z" fill="#B5E489"/>
<path id="Vector_2" opacity="0.1" d="M32.6787 46.4998C31.524 46.4998 30.3822 46.5904 29.2607 46.7638V59.9681C29.2607 61.8557 30.791 63.386 32.6787 63.386C34.5664 63.386 36.0967 61.8557 36.0967 59.9681V46.764C34.975 46.5905 33.8332 46.4998 32.6787 46.4998Z" fill="black"/>
<path id="Vector_3" d="M49.9437 56.8726C49.2814 56.7753 48.6847 56.4321 48.2593 55.9152C44.5603 51.419 38.9552 48.5505 32.6785 48.5505C26.3828 48.5505 20.7631 51.4367 17.0644 55.9562C16.6605 56.4497 16.1014 56.7995 15.4719 56.9019C11.5773 57.5357 8.31285 60.0461 6.63887 63.4754C5.4557 65.8992 7.28377 68.7208 9.98082 68.7208H55.6147C58.321 68.7208 60.1396 65.8857 58.9481 63.4558C57.2454 59.9831 53.9107 57.456 49.9437 56.8726Z" fill="#C27C59"/>
<path id="Vector_4" d="M68.9769 22.1718C65.7531 19.3972 59.5291 15.002 52.3014 14.8361C46.8658 14.7114 42.2761 19.0262 42.3098 24.463C42.3423 29.7212 46.615 33.9739 51.8809 33.9739C59.2828 33.9739 65.6833 29.4668 68.9713 26.6384C70.3391 25.4616 70.3446 23.3489 68.9769 22.1718Z" fill="#54B88B"/>
<path id="Vector_5" opacity="0.1" d="M50.6254 14.9421C45.9552 15.6309 42.2795 19.5959 42.3098 24.4631C42.3423 29.7213 46.615 33.9739 51.8809 33.9739C56.5095 33.9739 60.7464 32.2115 64.0755 30.1993C47.545 33.4874 46.257 18.6859 50.6254 14.9421Z" fill="black"/>
<path id="Vector_6" opacity="0.1" d="M61.522 25.4292H47.6606C47.0942 25.4292 46.6353 24.9701 46.6353 24.4038C46.6353 23.8375 47.0942 23.3784 47.6606 23.3784H61.5222C62.0886 23.3784 62.5475 23.8375 62.5475 24.4038C62.5475 24.9701 62.0884 25.4292 61.522 25.4292Z" fill="black"/>
<path id="Vector_7" d="M0.102702 5.21133C1.2093 9.31822 3.88612 16.4521 9.77036 20.6521C14.1958 23.8108 20.4171 22.8225 23.4455 18.3069C26.3744 13.9399 25.2313 8.0209 20.8763 5.0608C14.7546 0.899903 6.92757 1.02938 2.61833 1.52047C0.825397 1.72473 -0.36679 3.46885 0.102702 5.21133Z" fill="#54B88B"/>
<path id="Vector_8" opacity="0.1" d="M4.75005 1.33936C3.97403 1.38352 3.2568 1.44777 2.61833 1.52051C0.825397 1.7249 -0.36679 3.46902 0.102702 5.2115C1.2093 9.3184 3.88612 16.4522 9.77036 20.6522C13.9396 23.6282 19.7016 22.9218 22.8874 19.0544C11.1604 22.0756 3.57385 7.47639 4.75005 1.33936Z" fill="black"/>
<path id="Vector_9" opacity="0.1" d="M18.9861 16.374C18.7877 16.374 18.5871 16.3166 18.4106 16.1966L6.94664 8.40427C6.47824 8.08599 6.3567 7.4482 6.67498 6.9798C6.99326 6.51167 7.63092 6.38972 8.09945 6.70828L19.5636 14.5004C20.032 14.8187 20.1535 15.4565 19.8353 15.9249C19.6367 16.2167 19.3144 16.374 18.9861 16.374Z" fill="black"/>
<path id="Vector_10" opacity="0.1" d="M25.068 58.6356C21.8972 58.4394 20.091 55.1388 22.7145 51.1833C20.5492 52.4171 18.6334 54.0389 17.0644 55.9561C16.6605 56.4496 16.1015 56.7993 15.4719 56.9018C11.5773 57.5356 8.31287 60.046 6.63888 63.4753C5.45572 65.8991 7.28365 68.7207 9.98084 68.7207H38.7769C40.8918 63.2884 31.7302 59.048 25.068 58.6356Z" fill="black"/>
<g id="Group" opacity="0.1">
<path id="Vector_11" d="M16.4325 62.6735C16.9671 62.6735 17.4006 62.2401 17.4006 61.7054C17.4006 61.1707 16.9671 60.7373 16.4325 60.7373C15.8978 60.7373 15.4644 61.1707 15.4644 61.7054C15.4644 62.2401 15.8978 62.6735 16.4325 62.6735Z" fill="black"/>
<path id="Vector_12" d="M24.805 55.6379C25.3397 55.6379 25.7731 55.2044 25.7731 54.6698C25.7731 54.1351 25.3397 53.7017 24.805 53.7017C24.2703 53.7017 23.8369 54.1351 23.8369 54.6698C23.8369 55.2044 24.2703 55.6379 24.805 55.6379Z" fill="black"/>
<path id="Vector_13" d="M34.6146 65.8796C35.1493 65.8796 35.5827 65.4461 35.5827 64.9115C35.5827 64.3768 35.1493 63.9434 34.6146 63.9434C34.0799 63.9434 33.6465 64.3768 33.6465 64.9115C33.6465 65.4461 34.0799 65.8796 34.6146 65.8796Z" fill="black"/>
<path id="Vector_14" d="M31.2254 59.3307C31.7601 59.3307 32.1935 58.8973 32.1935 58.3626C32.1935 57.828 31.7601 57.3945 31.2254 57.3945C30.6908 57.3945 30.2573 57.828 30.2573 58.3626C30.2573 58.8973 30.6908 59.3307 31.2254 59.3307Z" fill="black"/>
<path id="Vector_15" d="M41.3412 56.6059C41.8758 56.6059 42.3093 56.1725 42.3093 55.6378C42.3093 55.1031 41.8758 54.6697 41.3412 54.6697C40.8065 54.6697 40.373 55.1031 40.373 55.6378C40.373 56.1725 40.8065 56.6059 41.3412 56.6059Z" fill="black"/>
<path id="Vector_16" d="M51.472 64.9116C52.0067 64.9116 52.4401 64.4781 52.4401 63.9435C52.4401 63.4088 52.0067 62.9753 51.472 62.9753C50.9373 62.9753 50.5039 63.4088 50.5039 63.9435C50.5039 64.4781 50.9373 64.9116 51.472 64.9116Z" fill="black"/>
</g>
</g>
<defs>
<clipPath id="clip0_1163_635">
<rect width="70" height="70" fill="white"/>
</clipPath>
</defs>
</svg>
