<svg width="38" height="38" viewBox="0 0 38 38" fill="none" xmlns="http://www.w3.org/2000/svg">
<g id="video 1" clip-path="url(#clip0_642_272)">
<path id="Vector" d="M6.1167 31.2275H31.8833V34.2859H6.1167V31.2275Z" fill="#897BAD"/>
<path id="Vector_2" d="M4.54157 37.9998C3.26917 37.9998 2.44942 36.6514 3.03493 35.5218L9.06031 23.8984H12.8832L6.04814 37.0838C5.75646 37.6465 5.1754 37.9998 4.54157 37.9998Z" fill="#988FC4"/>
<path id="Vector_3" d="M10.9717 23.8984H9.06018L3.03488 35.5218C2.58163 36.3961 2.97076 37.4011 3.7597 37.8108L10.9717 23.8984Z" fill="#897BAD"/>
<path id="Vector_4" d="M33.4583 37.9998C34.7307 37.9998 35.5504 36.6514 34.9649 35.5218L28.9396 23.8984H25.1167L31.9517 37.0838C32.2434 37.6465 32.8245 37.9998 33.4583 37.9998Z" fill="#988FC4"/>
<path id="Vector_5" d="M27.0282 23.8984H25.1167L31.9517 37.0838C32.2435 37.6465 32.8245 37.9998 33.4584 37.9998C33.7458 37.9998 34.0099 37.9305 34.2401 37.8108L27.0282 23.8984Z" fill="#897BAD"/>
<path id="Vector_6" d="M34.1771 28.9152H3.82293C1.71156 28.9152 0 27.2036 0 25.0923V6.1167H38V25.0922C38 27.2036 36.2884 28.9152 34.1771 28.9152Z" fill="#F5F5FC"/>
<path id="Vector_7" d="M3.05833 25.0923V6.1167H0V25.0922C0 27.2036 1.71156 28.9151 3.82293 28.9151H6.88127C4.76997 28.9152 3.05833 27.2036 3.05833 25.0923Z" fill="#EBEBF5"/>
<path id="Vector_8" d="M3.82271 25.8568C3.4004 25.8568 3.05811 25.5145 3.05811 25.0922V6.1167H34.9414V25.0922C34.9414 25.5145 34.5991 25.8568 34.1768 25.8568H3.82271Z" fill="#FF9696"/>
<path id="Vector_9" d="M6.11644 25.0922V6.1167H3.05811V25.0922C3.05811 25.5145 3.4004 25.8568 3.82271 25.8568H6.88104C6.45881 25.8568 6.11644 25.5145 6.11644 25.0922Z" fill="#FF73A5"/>
<path id="Vector_10" d="M34.1771 0H3.82293C1.71156 0 0 1.71156 0 3.82293V6.88127H38V3.82293C38 1.71156 36.2884 0 34.1771 0Z" fill="#FFF48F"/>
<path id="Vector_11" d="M12.9173 6.03561C14.1569 6.03561 15.1618 5.23539 15.1618 4.24827C15.1618 3.26116 14.1569 2.46094 12.9173 2.46094C11.6777 2.46094 10.6729 3.26116 10.6729 4.24827C10.6729 5.23539 11.6777 6.03561 12.9173 6.03561Z" fill="#FFA1AC"/>
<path id="Vector_12" d="M25.0828 6.03561C26.3224 6.03561 27.3273 5.23539 27.3273 4.24827C27.3273 3.26116 26.3224 2.46094 25.0828 2.46094C23.8433 2.46094 22.8384 3.26116 22.8384 4.24827C22.8384 5.23539 23.8433 6.03561 25.0828 6.03561Z" fill="#FFA1AC"/>
<g id="Group">
<path id="Vector_13" d="M14.2251 3.08456C13.9177 3.08456 13.6685 2.83541 13.6685 2.52792V1.61035C13.6685 1.30286 13.9177 1.05371 14.2251 1.05371C14.5325 1.05371 14.7817 1.30286 14.7817 1.61035V2.52784C14.7817 2.83533 14.5325 3.08456 14.2251 3.08456Z" fill="#495560"/>
<path id="Vector_14" d="M23.7744 3.08456C23.467 3.08456 23.2178 2.83541 23.2178 2.52792V1.61035C23.2178 1.30286 23.467 1.05371 23.7744 1.05371C24.0818 1.05371 24.3311 1.30286 24.3311 1.61035V2.52784C24.3311 2.83533 24.0819 3.08456 23.7744 3.08456Z" fill="#495560"/>
<path id="Vector_15" d="M19 3.6307C18.3567 3.6307 17.7449 3.35208 17.3216 2.86625C17.1196 2.63446 17.1437 2.28289 17.3755 2.08087C17.6073 1.87884 17.9589 1.90304 18.1609 2.13482C18.3728 2.37796 18.6786 2.51742 19.0001 2.51742C19.3215 2.51742 19.6274 2.37796 19.8393 2.13482C20.0412 1.90311 20.3928 1.87899 20.6247 2.08087C20.8565 2.28289 20.8806 2.63446 20.6786 2.86625C20.2551 3.35208 19.6433 3.6307 19 3.6307Z" fill="#495560"/>
</g>
<path id="Vector_16" d="M6.88127 0H3.82293C1.71156 0 0 1.71156 0 3.82293V6.88127H3.05833V3.82293C3.05833 1.71156 4.76997 0 6.88127 0Z" fill="#FFEE6E"/>
<path id="Vector_17" d="M15.2632 11.4369L23.2685 15.6479C23.8204 15.9383 23.8204 16.7285 23.2685 17.0187L15.2632 21.2298C14.8334 21.4558 14.3174 21.1442 14.3174 20.6586V12.0081C14.3174 11.5225 14.8334 11.2108 15.2632 11.4369Z" fill="white"/>
<path id="Vector_18" d="M16.4416 19.7915V12.8753C16.4416 12.5504 16.7305 12.324 17.0261 12.3643L15.2632 11.4369C14.8334 11.2108 14.3174 11.5225 14.3174 12.0081V20.6587C14.3174 21.1443 14.8334 21.4559 15.2632 21.2298L17.0261 20.3025C16.7305 20.3428 16.4416 20.1163 16.4416 19.7915Z" fill="#F5F5FC"/>
</g>
<defs>
<clipPath id="clip0_642_272">
<rect width="38" height="38" fill="white"/>
</clipPath>
</defs>
</svg>
