<svg width="70" height="70" viewBox="0 0 70 70" fill="none" xmlns="http://www.w3.org/2000/svg">
<g id="world-book-day 1" clip-path="url(#clip0_1163_244)">
<g id="Group">
<g id="Group_2">
<path id="Vector" d="M54.8585 6.80103L10.6582 11.0218C7.09965 15.0716 4.53645 20.0161 3.34863 25.4749L29.3695 64.3C31.1981 64.6205 33.0792 64.7888 34.9997 64.7888C52.8906 64.7888 67.3941 50.2854 67.3941 32.3944C67.3941 21.9873 62.4855 12.7278 54.8585 6.80103Z" fill="#96E8FF"/>
</g>
<g id="Group_3">
<path id="Vector_2" d="M16.6898 32.3943C16.6898 23.4768 20.2937 15.4022 26.1239 9.54492L10.6582 11.0218C7.09965 15.0715 4.53645 20.0161 3.34863 25.4748L29.3695 64.3C31.1981 64.6204 33.0792 64.7887 34.9997 64.7887C37.4184 64.7887 39.7745 64.5215 42.042 64.0187C27.5376 60.803 16.6898 47.8664 16.6898 32.3943Z" fill="#80DBFF"/>
</g>
<g id="Group_4">
<path id="Vector_3" d="M31.3321 47.6703C31.2537 47.4848 31.1641 47.3043 31.0639 47.1297L24.842 36.2874C23.9522 34.737 22.3012 33.7808 20.5136 33.7808H12.508C10.4451 33.7808 8.59471 32.5114 7.85205 30.5868L7.07727 28.5786C6.44822 26.9483 5.02334 25.7915 3.34867 25.4749C2.86346 27.7046 2.60547 30.0191 2.60547 32.3943C2.60547 48.3647 14.1627 61.6348 29.3695 64.3C29.6244 63.2351 29.6102 62.0899 29.2664 60.9631L29.2239 60.8239C28.7797 59.3676 29.0247 57.7881 29.8891 56.5346L30.86 55.1268C32.2595 53.0976 32.5257 50.4942 31.5659 48.2238L31.3321 47.6703Z" fill="#82D9B6"/>
</g>
<g id="Group_5">
<path id="Vector_4" d="M58.9726 22.267C58.9726 20.091 58.2775 17.9718 56.9888 16.2184L54.795 13.2338C53.3638 11.2867 53.4311 8.66264 54.8586 6.80107C49.3738 2.53914 42.4836 0 34.9997 0C25.2987 0 16.5951 4.26549 10.6582 11.0219C11.4364 11.5717 12.0717 12.3272 12.4721 13.236L13.3985 15.3396C14.418 17.6548 16.1989 19.5516 18.4452 20.7151L30.819 27.1239C32.5975 28.045 33.714 29.8808 33.714 31.8836C33.714 33.9248 34.8734 35.789 36.7042 36.6915L39.0645 37.855C42.6527 39.6238 46.881 39.516 50.3745 37.5666L56.2244 34.3022C57.9212 33.3554 58.9727 31.5644 58.9727 29.6213L58.9726 22.267Z" fill="#82D9B6"/>
</g>
<g id="Group_6">
<path id="Vector_5" d="M29.2242 60.8239C28.9378 59.8848 28.9396 58.8948 29.2075 57.9737C21.9311 52.3114 17.1358 43.6131 16.7215 33.7808H12.508C10.4451 33.7808 8.59471 32.5114 7.85205 30.5868L7.07727 28.5786C6.44822 26.9483 5.02334 25.7915 3.34867 25.4749C2.86346 27.7046 2.60547 30.0191 2.60547 32.3943C2.60547 48.3647 14.1627 61.6348 29.3695 64.3C29.6244 63.2351 29.6102 62.0899 29.2664 60.9631L29.2242 60.8239Z" fill="#06CCAB"/>
</g>
<g id="Group_7">
<path id="Vector_6" d="M18.7927 20.8953C22.6214 10.8157 31.3347 3.14357 42.0428 0.769727C39.7752 0.266738 37.4188 0 34.9997 0C25.2987 0 16.5951 4.26549 10.6582 11.0219C11.4364 11.5717 12.0717 12.3272 12.4721 13.236L13.3985 15.3396C14.418 17.6548 16.1989 19.5516 18.4452 20.7151L18.7927 20.8953Z" fill="#06CCAB"/>
</g>
<g id="Group_8">
<path id="Vector_7" d="M34.9998 46.0572C29.37 44.3802 23.7802 44.1998 18.159 45.5169C16.9714 45.7951 16.1289 46.851 16.1289 48.0708V67.5634C16.1289 68.8999 17.3631 69.8967 18.6689 69.6116C23.5276 68.5512 28.3644 68.61 33.2256 69.788C34.3921 70.0707 35.6076 70.0707 36.7741 69.788C41.6353 68.61 46.4721 68.5512 51.3308 69.6116C52.6365 69.8965 53.8708 68.8999 53.8708 67.5634C53.8708 59.3524 53.8708 56.2818 53.8708 48.0708C53.8708 46.851 53.0283 45.7951 51.8407 45.5169C46.2193 44.1998 40.6296 44.38 34.9998 46.0572Z" fill="#FF9696"/>
</g>
<g id="Group_9">
<path id="Vector_8" d="M18.159 45.5169C16.9714 45.7951 16.1289 46.851 16.1289 48.0708V67.5634C16.1289 68.8999 17.3631 69.8967 18.6689 69.6116C23.5276 68.5512 28.3644 68.6099 33.2256 69.788C33.8088 69.9293 34.4044 69.9999 34.9999 69.9999V46.0572C29.37 44.38 23.7802 44.1998 18.159 45.5169Z" fill="#FF7D81"/>
</g>
<g id="Group_10">
<path id="Vector_9" d="M25.988 57.986V44.6513C23.375 44.6162 20.7624 44.9056 18.143 45.5205C16.9615 45.798 16.1289 46.8579 16.1289 48.0716V67.5628C16.1289 68.9041 17.3699 69.8948 18.6805 69.6093C23.5352 68.5515 28.3682 68.6111 33.2256 69.7881C33.8087 69.9294 34.4042 70 34.9998 70C34.9998 67.0034 32.1484 65.0013 29.6534 63.8231C27.4037 62.7606 25.988 60.474 25.988 57.986Z" fill="#FF636E"/>
</g>
<g id="Group_11">
<g id="Group_12">
<g id="Group_13">
<path id="Vector_10" d="M23.9608 17.2441C26.2103 17.2441 28.0339 15.7919 28.0339 14.0005C28.0339 12.2091 26.2103 10.7568 23.9608 10.7568C21.7113 10.7568 19.8877 12.2091 19.8877 14.0005C19.8877 15.7919 21.7113 17.2441 23.9608 17.2441Z" fill="white"/>
</g>
<g id="Group_14">
<path id="Vector_11" d="M46.0389 17.2441C48.2885 17.2441 50.1121 15.7919 50.1121 14.0005C50.1121 12.2091 48.2885 10.7568 46.0389 10.7568C43.7894 10.7568 41.9658 12.2091 41.9658 14.0005C41.9658 15.7919 43.7894 17.2441 46.0389 17.2441Z" fill="white"/>
</g>
</g>
<g id="Group_15">
<path id="Vector_12" d="M28.2735 11.4962C27.7071 11.4962 27.2481 11.0371 27.2481 10.4708C27.2481 9.96712 26.8385 9.55737 26.3348 9.55737C25.8311 9.55737 25.4214 9.96712 25.4214 10.4708C25.4214 11.0371 24.9624 11.4962 24.396 11.4962C23.8296 11.4962 23.3706 11.0371 23.3706 10.4708C23.3706 8.83632 24.7003 7.50659 26.3348 7.50659C27.9691 7.50659 29.2989 8.83632 29.2989 10.4708C29.2989 11.0371 28.8398 11.4962 28.2735 11.4962Z" fill="#707789"/>
</g>
<g id="Group_16">
<path id="Vector_13" d="M45.6036 11.4962C45.0371 11.4962 44.5782 11.0371 44.5782 10.4708C44.5782 9.96712 44.1684 9.55737 43.6647 9.55737C43.1611 9.55737 42.7515 9.96712 42.7515 10.4708C42.7515 11.0371 42.2925 11.4962 41.7261 11.4962C41.1596 11.4962 40.7007 11.0371 40.7007 10.4708C40.7007 8.83632 42.0304 7.50659 43.6647 7.50659C45.2992 7.50659 46.6289 8.83632 46.6289 10.4708C46.6289 11.0371 46.1698 11.4962 45.6036 11.4962Z" fill="#707789"/>
</g>
<g id="Group_17">
<path id="Vector_14" d="M34.9999 14.699C33.9153 14.699 32.8839 14.2293 32.1704 13.4103C31.7982 12.9834 31.8428 12.3357 32.2698 11.9636C32.6966 11.5916 33.3444 11.6359 33.7165 12.063C34.0405 12.4348 34.5084 12.6481 35 12.6481C35.4917 12.6481 35.9595 12.4348 36.2836 12.063C36.6554 11.6359 37.3031 11.5916 37.7303 11.9636C38.1571 12.3356 38.2017 12.9834 37.8297 13.4103C37.1159 14.2293 36.0845 14.699 34.9999 14.699Z" fill="#707789"/>
</g>
</g>
</g>
</g>
<defs>
<clipPath id="clip0_1163_244">
<rect width="70" height="70" fill="white"/>
</clipPath>
</defs>
</svg>
